<?xml version="1.0" encoding="utf-8"?>
<!-- Generator: Adobe Illustrator 23.1.0, SVG Export Plug-In . SVG Version: 6.00 Build 0)  -->
<svg version="1.1" xmlns="http://www.w3.org/2000/svg" xmlns:xlink="http://www.w3.org/1999/xlink" x="0px" y="0px"
	 viewBox="0 0 595.28 841.89" style="enable-background:new 0 0 595.28 841.89;" xml:space="preserve">
<style type="text/css">
	.st0{fill:#43BAC1;}
</style>
<g id="Слой_1">
</g>
<g id="Слой_2">
	<path class="st0" d="M535.96,263.75c-0.76-14.5-2.83-28.94-6.17-43.08c-3.98-16.93-9.76-33.43-17.24-49.11
		c-12.32-25.83-29.25-49.47-49.72-69.47c-2.35-2.3-4.75-4.55-7.19-6.75c-23.72-21.35-51.67-37.98-81.75-48.63
		c-9.33-3.3-18.86-6.03-28.53-8.17c-2.08-0.47-4.17-0.9-6.27-1.3c-19.51-3.8-39.48-5.22-59.33-4.18c-7.62,0.4-15.23,1.16-22.78,2.28
		c-24.02,3.55-47.51,10.68-69.41,21.13c-19.23,9.17-37.24,20.9-53.44,34.74c-0.54,0.46-1.08,0.92-1.61,1.38
		c-7.48,6.49-14.55,13.44-21.17,20.8c-12.15,13.49-22.77,28.36-31.63,44.21c-6.72,12-12.42,24.57-17,37.53
		c-10.65,30.08-15.32,62.27-13.65,94.13c0.04,0.77,0.08,1.55,0.13,2.32c1.93,31.08,9.88,61.78,23.28,89.88
		c6.12,12.81,13.37,25.1,21.64,36.66c0.51,0.73,1.04,1.46,1.56,2.18c9.92,13.58,21.22,26.13,33.71,37.37
		c8.39,7.55,17.31,14.51,26.67,20.82c17.09,11.55,35.64,20.93,55.08,27.81c23.67,8.38,48.65,13.06,73.74,13.86
		c0.62,0.02,1.25,0.03,1.88,0.04c6.17,0.16,12.35,0.07,18.51-0.25c31.87-1.67,63.4-9.68,92.19-23.41
		c6.26-2.99,12.39-6.24,18.37-9.75c0.93-0.55,1.85-1.1,2.78-1.65c20.44-12.38,39.08-27.75,55.07-45.51
		c2.66-2.96,5.25-5.98,7.76-9.07c17.65-21.65,31.55-46.35,40.87-72.68c6.07-17.12,10.19-34.94,12.31-52.99
		C536.22,291.24,536.67,277.47,535.96,263.75z M456.56,431.78c-0.65-7.75-1.51-15.71-3.05-22.74c4.87-0.49,9.59-1.43,12.81-2.83
		c2.27-0.39,4.38-0.79,6.37-1.2c1.85,6.43,3.61,15.23,4.41,22.09C471.85,428.72,464.48,430.68,456.56,431.78z M436.73,459.02
		c-7.72,0.69-14.76,0.38-21.46-0.93c1.27-6.46,2.52-15.45,2.7-22.48c1.46,0.14,2.94,0.23,4.48,0.23c2.14,0,4.39-0.15,6.73-0.41
		c2.16,0.7,4.8,1.11,8.04,1.22C437.89,444.32,437.74,451.5,436.73,459.02z M347.66,492.33c3.39-5.81,6.36-12.96,8.68-20.87
		c3.65,1.9,7.72,3.62,12.29,5.17c1.95,1.09,3.99,2.05,6.09,2.92c-2.13,7.3-5.55,16.1-8.17,21.03
		C359.36,498.65,352.63,495.7,347.66,492.33z M299.2,493.07c3.74-4.23,8.52-9.82,13.28-17.63c2.95,2.54,6.26,4.58,10.05,6.21
		c1.91,2.05,4.08,3.91,6.53,5.59c-3.79,8.84-8.01,15.16-11.16,19.13C310.26,503.68,304.13,499.29,299.2,493.07z M146.31,433.97
		c-7.16,1.04-14.64,1.97-21.84,1.84c-1.51-8.19-1.82-15.35-0.94-21.39c3.92,0.21,8.21,0.29,12.38,0.29c3.56,0,7-0.05,10.04-0.12
		c-0.09,3.64,0.08,7.48,0.52,11.63C146.16,428.46,146.1,431.01,146.31,433.97z M119.71,418.54c-6.93,0.66-16.22,0.51-22.3-1.27
		c-1.41-8.05-0.82-15.91,0.26-20.95c6.32,1.31,16.53,2.41,23.81,2.78c-0.45,3.84-0.78,8.28-1.1,13.38
		C120.04,414.41,119.82,416.43,119.71,418.54z M105.93,153.64c1.07,5.95,3.24,12.93,6.58,21.24c-3.83,1.13-7.49,2.62-11,4.5
		c-1.87,0.45-4.48,1.32-7.39,2.48c-3.14-6.83-5.83-13.59-8.35-21.05C92.09,157.88,99.22,154.92,105.93,153.64z M123.07,149.17
		c2.7-0.52,5.12-0.82,7.31-0.93c0.31,7.38,1.75,14.62,4.39,22.02c-3.23,0.51-6.37,1.25-8.98,2.18c-3.47,0.29-6.78,0.8-9.96,1.55
		c-3.34-8.25-5.57-15.36-6.6-21.16C114.55,151.13,119.11,149.92,123.07,149.17z M155.95,116.93c-4.03-0.04-8.45,0.12-13.33,0.5
		c-2.27-0.03-4.58,0.06-6.93,0.24c-0.74-7.75-0.73-15.19,0.04-23.16c6.77-0.38,14.62-0.37,20.89,0.02
		C156.22,99.21,155.85,106.52,155.95,116.93z M166.2,121.05c-1.43,6.21-1.59,14.12-0.43,22.7c-2.55-0.14-5.05-0.12-7.36,0.02
		c-3.85-0.49-7.76-0.67-11.82-0.55c-1.19-8.96-1.96-16.98-2.16-22.51C153.13,120.09,160.28,120.21,166.2,121.05z M160.02,94.67
		c9.18,0.19,16.37,1.09,21.43,2.67c-1.69,5.52-2.6,12.62-2.76,21.61c-3.33-0.57-6.77-0.91-10.22-0.99c-2.76-0.48-5.8-0.78-9.12-0.93
		C159.25,106.56,159.62,99.29,160.02,94.67z M202.07,74.99c-2.08,5.16-3.79,11.87-5.65,22.21c-3.6-0.93-7.74-1.8-12.4-2.58
		c-1.99-0.73-4.33-1.35-7.01-1.85c0.79-6.89,2.1-15.78,4.15-22.69C189.27,71.35,196.85,73.13,202.07,74.99z M430.32,91.75
		c2.3,7.36,3.56,14.23,3.85,20.91c-8.92,0.53-16.5,1.69-22.59,3.48c-0.49-3.84-1.24-7.35-2.27-10.54c-0.24-2.59-0.71-5.34-1.42-8.24
		C414.3,94.76,422.96,92.59,430.32,91.75z M459.76,105.37c0.68,3.8,1.49,10.3,1.97,21.03c-7.7-0.7-16.59-0.28-22.85,0.41
		c-0.15-3.99-0.56-8.23-1.25-12.72c-0.05-2.15-0.2-4.32-0.44-6.51C446.58,105.95,455.64,105.5,459.76,105.37z M463.9,152.97
		c0.45-2.4,0.8-4.98,1.04-7.69c7.54,0.12,16.32,1.08,22.04,2.39c-0.07,7.96-0.98,15.26-2.7,21.75c-5.83-2.16-12.76-3.4-21.99-3.94
		C463.07,161.19,463.53,156.94,463.9,152.97z M495.82,334.2c-4.2-8.24-8.11-14.23-12.16-18.6c3.09-1.88,5.82-3.85,7.63-5.52
		c2.97-1.54,5.85-3.39,8.62-5.49c4.94,4.94,9.4,10.63,12.97,16.59C506.57,327.86,501.33,331.2,495.82,334.2z M415.91,381.07
		c4.82,1.96,9.87,2.66,14.56,2.66c1.91,0,3.75-0.12,5.5-0.3c1.27,5.04,2.52,14.35,3.04,22.72c-3.44,0.58-6.75,0.79-9.8,0.74
		c-0.01,0-0.02,0-0.03,0c-5.18-0.11-9.56-1-12.29-2.29C417.55,394.82,417.01,387.89,415.91,381.07z M149.58,430.65
		c0-0.97,0.04-1.89,0.12-2.75c6.23-0.25,14.65-1.36,23.18-3.05c0.24,3.38,0.75,6.61,1.45,9.26c-0.4,3.38-0.29,6.93,0.35,10.68
		c-8.99,2.29-16.6,3.42-22.47,4.11c-1.24-5.45-2.03-9.94-2.39-13.72v-0.01C149.66,433.53,149.58,432.03,149.58,430.65z
		 M173.94,399.11c-7.92,0.73-15.74,0.82-22.79,0.25c0.05-6.27,1.44-15.25,4.42-22.03c0.03,0.31,0.13,0.61,0.32,0.87
		c0.29,0.39,0.74,0.64,1.23,0.68c6.81,0.53,12.69,0.8,17.76,0.82C174.02,386.17,173.83,392.99,173.94,399.11z M438.27,139.45
		c0.43-2.87,0.64-5.96,0.66-9.23c6.23-0.7,15.27-1.15,22.95-0.39c0.32,7.69-0.05,14.88-1.06,21c-8.14-1.16-15.59-1.5-22.67-1.03
		C438.45,146.13,438.49,142.51,438.27,139.45z M461.6,168.85c9.41,0.52,16.32,1.75,22.03,3.96c-0.65,6.76-2.95,14.68-6.06,20.99
		c-7.31-3.87-14.73-5.71-21.35-7.03c0.76-2.43,1.42-4.95,2.06-7.46C459.74,175.93,460.8,172.4,461.6,168.85z M476.28,196.97
		c-1.01,3.3-2.23,6.53-3.56,9.5c-0.01,0.02-0.02,0.05-0.03,0.07c-1.81,4-3.82,7.49-5.81,10.02c-5.41-3.94-12.08-6.87-21.72-9.54
		c0.6-1.53,1.19-3.08,1.77-4.68c3.76-2.64,6.28-7.12,8.19-12.32C461.7,191.32,469.11,193.1,476.28,196.97z M498.51,261.76
		c-4.65-5.21-10.67-9.86-17.58-13.6c1.97-2.55,3.76-5.25,5.26-7.84c2.22-2.46,4.27-5.14,6.18-8.05c5.97,2.73,13.06,6.83,19.12,11.09
		C506.28,252.54,502.28,258.21,498.51,261.76z M417.94,337.86c6.31-1.37,12.79-3.77,18.87-6.97c3.42,6.23,6.23,13.34,7.99,20.34
		c-7.7,3.67-17.9,5.76-25.4,6.3c-0.24-0.96-0.49-1.92-0.76-2.86c0.52-0.13,1.05-0.27,1.56-0.41c0.8-0.23,1.31-1,1.22-1.83
		C420.81,346.99,419.67,342.19,417.94,337.86z M197.05,352.53c-6.95,0.99-13.74,0.81-22.15-0.62c0.52-8.08,2.62-17.28,5.33-23.37
		c3.27,0.8,6.73,1.21,10.61,1.21c1.11,0,2.28-0.05,3.47-0.11c0,0.46,0,0.91,0,1.36c0.02,0.76,0.54,1.42,1.27,1.62
		c0.81,0.21,1.62,0.38,2.45,0.54C196.77,338.33,196.14,345.58,197.05,352.53z M432.7,300.98c-1.73-3.5-3.92-7.42-6.89-11.01
		c6.41-4.02,11.64-8.05,15.82-12.23c5.71,5.23,10.65,10.94,14.69,17.04c-7.78,5.68-15.06,10.06-22.16,13.37
		c-0.96-1.37-1.98-2.68-3.03-3.96c0.43-0.42,0.86-0.84,1.28-1.28C432.9,302.39,433.02,301.62,432.7,300.98z M417.47,279.93
		c-1.59-2.52-3.61-4.81-5.88-6.8c4.6-3.22,9.28-8.8,13.33-15.87c6.93,4.57,13.52,10.1,17.47,14.64c-4.47,5.32-10.7,10.41-18.92,15.5
		c-1.87-1.87-3.99-3.58-6.45-5c0.14-0.21,0.29-0.42,0.43-0.63C417.81,281.21,417.82,280.49,417.47,279.93z M253.45,335.11
		c0.38,0.01,0.77,0.03,1.14,0.03c7.7,0,14.24-2.01,20.12-6.15c-0.43,6.47,0.52,12.27,2.74,17.13c-4.89,5.94-11.51,10.16-19.27,12.24
		c-3.19-4.08-4.92-8.91-5.24-14.61v-0.01C252.8,341.06,252.97,338.19,253.45,335.11z M249.53,343.23
		c-4.33,4.62-13.27,7.66-23.27,7.91c-2.08-8.99-1.67-18.64,0-23.87c4.39,0.71,8.68,1.07,12.61,1.07c2.97,0,5.72-0.21,8.16-0.63
		c0.13,2.08,0.41,4.05,0.85,5.86c0.17,0.7,0.76,1.21,1.48,1.29c0.23,0.02,0.45,0.03,0.68,0.05
		C249.6,337.82,249.43,340.6,249.53,343.23z M187.23,266.09c-3.84-1.94-7.58-5.04-11.08-9.15c-0.01-0.01-0.03-0.03-0.04-0.04
		c-1.82-2.14-3.57-4.55-5.24-7.21c5.8-4.87,12.75-8.76,19.82-11.14c3.24,6.02,6.89,10.74,11.25,14.6
		C196.07,256.31,190.81,260.9,187.23,266.09z M188.88,272.79c-6.82,4.25-11.98,11.54-14.45,17.59c-3.09-1.99-6.09-3.94-9.02-6.18
		c-0.03-0.03-0.05-0.07-0.09-0.11c-0.16-0.17-0.35-0.3-0.55-0.39c-2.52-1.95-4.98-4.13-7.4-6.75c4.36-6.47,10.76-12.7,17.16-16.71
		c3.8,4.23,7.89,7.39,12.1,9.34C187.23,270.59,187.97,271.67,188.88,272.79z M349.39,295.2c-2.28-4.71-4.5-9.29-7.79-13.42
		c6.35-2.48,11.24-5.73,14.76-9.81c8.05,4.64,12.85,10.4,14.97,17.99c-6.11,5.01-12.85,7.01-21.83,6.4
		C349.6,295.98,349.57,295.57,349.39,295.2z M273.72,283.89c-11.79,1.45-22.6-6.84-26.56-16c7.94-5.58,15.57-7.96,22.15-6.88
		c4.65,0.76,8.6,3.25,11.78,7.35c-1.36,0.66-2.61,1.53-3.68,2.61c-2.59,2.58-4.07,6.16-4.07,9.81
		C273.34,281.83,273.48,282.87,273.72,283.89z M336.25,250.76c0.19-0.88,0.37-1.77,0.56-2.68c0.09-0.44-0.01-0.9-0.26-1.28
		c-0.24-0.37-0.63-0.64-1.08-0.72c-3.14-0.64-6.6-1.19-10.19-1.35c1.19-5.96,0.53-12.88-1.71-19.17c5.03-2.11,12.16-2.84,21.26-2.15
		c3.14,9.48,0.13,20.76-4.71,27.62C338.84,250.87,337.55,250.78,336.25,250.76z M357.81,263.15c-2.9,7.19-9.02,12.4-18.63,15.9
		c-2.8-2.86-6.31-5.43-10.98-7.59c3.63-4.67,5.67-10.52,7.29-17.3C345.29,254.15,353.55,258.47,357.81,263.15z M333.13,249.09
		c-0.22,1.02-0.43,2.02-0.65,2.99c-0.01,0.05-0.02,0.1-0.03,0.15c-3.05,13.47-7.08,22.12-21.39,25.99
		c-1.74-1.18-3.72-2.17-5.97-2.94c3.95-6.85,5.71-15.26,3.49-23.5C314.81,248.02,322.49,247.17,333.13,249.09z M300.35,276.38
		c-0.68-2.02-1.81-3.89-3.33-5.41c-2.58-2.58-6.15-4.06-9.81-4.06c-0.92,0-1.84,0.09-2.74,0.28c-0.91-1.28-1.89-2.45-2.95-3.49
		c-0.14-7.2,4.74-18.66,16.43-23.35C309.44,251.89,307.43,266.58,300.35,276.38z M321.81,244.71c-4.81,0.16-9.73,1.16-14.34,3.77
		c-1.6-3.94-4.17-7.78-7.94-11.34c-0.47-0.44-1.14-0.58-1.74-0.36c-0.21,0.07-0.4,0.16-0.6,0.24c3.01-7.76,8.12-13.24,20.44-16.21
		C321.83,227.9,323.48,237.37,321.81,244.71z M292.89,239.07c-0.34,0.2-0.67,0.42-1,0.63c-2.71-4.4-8.86-9.29-18.03-12.36
		c0.32-8.77,3.7-14.95,9.06-21.65c8.97,5.69,14.11,11.95,16.91,20.6C296.43,229.85,294.4,234.16,292.89,239.07z M289.12,241.68
		c-6.36,5.2-10.15,12.64-10.88,19.33c-2.54-1.72-5.36-2.86-8.38-3.36c-1.15-0.19-2.32-0.27-3.51-0.28c-3.89-8.68-2.98-19.66,2.33-28
		C279.5,232.01,286.59,237.33,289.12,241.68z M279.81,273.38c1.92-1.92,4.69-3.07,7.4-3.07c2.72,0,5.49,1.15,7.41,3.07
		c1.92,1.92,3.06,4.68,3.06,7.4c0,2.71-1.14,5.48-3.06,7.4c-1.92,1.92-4.69,3.07-7.41,3.07c-2.71,0-5.48-1.15-7.4-3.07
		c-1.92-1.92-3.07-4.69-3.07-7.4C276.74,278.06,277.89,275.3,279.81,273.38z M276.87,289.99c0.18,0.2,0.35,0.41,0.54,0.6
		c2.58,2.58,6.15,4.06,9.8,4.06c0.49,0,0.97-0.03,1.45-0.08c1.53,5.77,4.17,9.76,7.48,12.51c-0.36,8.57-5.87,15.81-14.95,19.6
		c-1.13-0.77-2.16-1.64-3.09-2.61c-0.01,0-0.01-0.01-0.02-0.01c0-0.01-0.01-0.01-0.01-0.02c-2.79-2.88-4.71-6.57-5.63-10.9
		C270.85,305.71,272.51,297.16,276.87,289.99z M299.36,309.29c5.54,3.09,12.27,3.79,18.64,4.03c0.55,9.46-1.82,17.19-7.59,24.71
		c-8.7-4.82-13.7-9.55-16.84-15.95C296.76,318.44,298.76,314.08,299.36,309.29z M299.3,305.28c-0.21-0.33-0.53-0.58-0.9-0.7
		c-2.92-2.37-5.1-5.81-6.43-10.8c1.88-0.69,3.62-1.76,5.05-3.19c2.58-2.58,4.06-6.16,4.06-9.81v-0.01c0.15-0.09,0.29-0.19,0.41-0.33
		c0.59-0.71,1.16-1.44,1.71-2.2c13.92,4.25,16.69,18.16,17.22,31.75C311.74,309.73,304.49,308.95,299.3,305.28z M314.24,280.82
		c4.93-1.63,8.66-3.89,11.57-6.71c4.99,2.17,8.6,4.8,11.41,7.8c0.13,0.21,0.29,0.4,0.49,0.54c3.39,3.78,5.64,8.1,7.92,12.77
		c-7.48,3.99-15.65,6.45-22.45,6.76C322.16,294.03,319.77,286.24,314.24,280.82z M358.43,269.23c1.1-1.65,2-3.42,2.72-5.31
		c2.8-1.8,5.1-4.31,6.95-7.15c8.42,1.28,14.73,3.84,19.44,7.93c0.01,0,0.02,0.01,0.03,0.02c1.02,0.9,1.98,1.85,2.85,2.89
		c-4.97,11.28-12.6,14.31-18.55,14.71C369.01,277.13,364.6,272.85,358.43,269.23z M360.05,260.57c-4.01-4.3-9.84-7.44-16.28-8.9
		c2.86-4.55,4.99-10.52,5.56-16.71c7.54-0.37,14.29,0.73,21.53,3.53C370.22,245.04,366.94,255.57,360.05,260.57z M344.92,220.01
		c-9.28-0.68-16.73,0.06-22.2,2.23c0.02-5.69-0.19-10.55-1.35-14.95c3.62-5.39,12.44-10.26,21.2-11.73
		C346.81,202.6,347.72,212.14,344.92,220.01z M320.04,203.44c-1.69-3.87-4.4-7.43-8.74-10.95c0.77-7.87,8.22-16.26,17.9-20.17
		c4.42,5.53,7.22,12.21,8.78,20.79C331.32,194.94,324.29,198.56,320.04,203.44z M317.87,207.35c0.01,0.04,0.02,0.08,0.03,0.12
		c0.84,2.89,1.21,6.13,1.35,9.94c-0.36-0.2-0.77-0.28-1.18-0.19c-6.84,1.51-11.8,3.74-15.49,6.6c-1.77-4.91-4.28-9.1-7.78-12.85
		c2.69-6.62,7.9-12.27,14.51-15.72C313.99,199.07,316.52,202.79,317.87,207.35z M292.21,208.41c-2.42-2.18-5.22-4.22-8.46-6.2
		c-1.05-1.59-2.19-3.06-3.43-4.4c0.76-9.11,5.66-17.71,10.25-22.32c5.35,1.95,14.25,10.4,16.87,16.91
		C300.69,196.01,295.28,201.7,292.21,208.41z M277.25,194.89c-4.45-3.7-9.98-6.21-16.85-7.7c-1.4-7.54,0.44-15.59,5.48-23.97
		c7.4,3.64,13.53,7.73,19.56,12.99C281.72,181,278.41,187.65,277.25,194.89z M260.01,190.58c7.43,1.65,12.97,4.5,17.27,8.93
		c0.01,0.01,0.02,0.02,0.03,0.03c1.12,1.17,2.15,2.44,3.12,3.83c-5.44,6.75-9.04,13.04-9.83,21.65c-3.36-5.1-7.88-8.78-13.53-11.02
		C255.3,204.99,258.18,195.4,260.01,190.58z M267.11,225.97c-0.23,0.12-0.44,0.28-0.59,0.51c-2.57,3.7-4.33,7.94-5.23,12.33
		c-5.89-1.16-12-1.38-18.07-0.67c-1.42-6.72-2.14-15.54-1.9-23.32C253.02,214.68,261.66,218.43,267.11,225.97z M260.77,242.17
		c-0.56,5.27,0.07,10.62,1.98,15.43c-5.51,0.73-11.39,3.22-17.36,7.38c-4.94-6.36-8.67-16.24-8.42-22.3
		C244.86,240.78,253.02,240.62,260.77,242.17z M238.59,260.61c-4.41,1.51-10.02,3.59-15.28,7.92c-4.77-3.98-9.33-10.29-12.19-16.77
		c0-0.16-0.02-0.32-0.07-0.48c-0.09-0.27-0.24-0.51-0.43-0.69c-0.18-0.44-0.36-0.88-0.52-1.32c5.73-4.53,13.62-6.65,23.48-6.33
		C233.49,247.96,235.46,254.66,238.59,260.61z M206.99,247.43c-0.53,0.45-0.72,1.17-0.5,1.83c0.17,0.52,0.36,1.04,0.56,1.56
		c-0.6,0.22-1.19,0.46-1.78,0.71c-6.16-5.11-10.86-11.92-15.04-21.83c8.2-4.01,16.29-6.36,22.22-7.7c1.1,6.9,4.2,14.27,7.52,18.86
		C214.91,242.14,210.56,244.33,206.99,247.43z M205.7,255.06c0.02-0.01,0.03-0.01,0.05-0.02c0.87-0.4,1.74-0.76,2.62-1.09
		c3.01,6.53,7.53,12.71,12.41,16.89c-2.13,2.14-4.16,4.72-5.96,7.88c-1.71,1.05-3.36,2.31-4.93,3.77
		c-8.43-1.59-16.8-8.98-20.06-14.18C193.54,262.79,199.34,257.99,205.7,255.06z M240.31,263.62c1.02,1.64,2.13,3.17,3.3,4.54
		c1.23,3.23,3.22,6.39,5.79,9.19c-5.35,4.14-9.57,8.99-12.38,14.15c-8.95-2.6-15.09-7.62-18.87-11.77
		C224.55,269.07,233.94,265.79,240.31,263.62z M251.85,279.76c5.15,4.56,11.91,7.7,19.2,7.7c1.17,0,2.37-0.1,3.57-0.28
		c-3.02,4.62-4.98,9.71-5.78,14.84c-8.79,3.84-18.24,2.84-31.2-3.34C239.77,291.87,244.87,285.08,251.85,279.76z M253.17,307.36
		c1.57,0.22,3.16,0.34,4.77,0.34c3.45,0,6.97-0.56,10.53-1.87c-0.12,2.72,0.08,5.41,0.64,8.02c0.92,4.3,2.71,8.06,5.26,11.15
		c-6.63,5.31-13.97,7.36-23.44,6.59C250.1,327.28,249.63,319.23,253.17,307.36z M279.19,349.34c2.24,3.53,5.26,6.42,9.03,8.51
		c0.25,0.14,0.54,0.21,0.82,0.21c0.33,0,0.66-0.09,0.95-0.28c0.01-0.01,0.02-0.02,0.03-0.02c-0.53,9.67-4.79,16.67-13.55,22.26
		c-7.67-4.91-12.12-11.93-12.66-19.95C269.79,357.71,275.02,354.07,279.19,349.34z M288.97,354.35
		c-8.01-4.92-11.79-13.94-10.84-25.7c0.63,0.49,1.28,0.95,1.96,1.38c0.27,0.17,0.59,0.26,0.91,0.26c0.2,0,0.41-0.04,0.61-0.11
		c3.65-1.41,6.81-3.31,9.43-5.59c2.52,4.71,6.1,8.67,11.24,12.35C300.02,343.42,294.94,350.08,288.97,354.35z M293.47,355.13
		c5.16-4.4,9.46-10.34,11.71-16.24c1.51,0.95,3.13,1.89,4.87,2.82c0.25,0.13,0.51,0.19,0.76,0.2c1.95,2.93,4.37,5.42,7.17,7.45
		c-0.59,7.08-3.49,15.41-7.43,21.37c-10.47-3.87-15.74-8.75-17.18-11.98C293.46,357.58,293.48,356.37,293.47,355.13z M313.43,339.68
		c4.02-5.35,6.46-10.8,7.48-16.82c4.85,2.55,10.76,4.22,17.04,4.86c0.22,8.4-0.13,15.71-4.31,24.06
		C324.86,350.68,317.76,346.42,313.43,339.68z M321.36,319.22c0.14-1.87,0.16-3.8,0.05-5.8c0.24,0.01,0.49,0.02,0.73,0.02
		c0.01,0,0.02,0,0.03,0c0.46,0,0.89-0.18,1.21-0.5c0.33-0.33,0.51-0.78,0.49-1.24c-0.05-2.07-0.15-4.2-0.33-6.33
		c6.29-0.32,13.42-2.25,20.34-5.47c2.24,6.1,3.42,13.66,3.83,24.6C337.94,325.18,328.28,323.24,321.36,319.22z M341.36,327.97
		c0.85,0.04,1.69,0.06,2.54,0.06c1.9,0,3.82-0.09,5.73-0.28c0.89-0.08,1.56-0.85,1.54-1.74c-0.01-0.29-0.02-0.56-0.03-0.84
		c1.88,0.44,3.97,0.81,6.23,0.98c4.33,8.4,5.48,16.75,3.55,26.12c-4.8,0.49-15.46-0.04-22.06-4.14
		C341.47,340.63,341.53,333.82,341.36,327.97z M350.98,321.63c-0.49-9.38-1.61-16.29-3.59-22.03c1.63,0.17,3.33,0.29,5.09,0.29
		c3.51,0,7.23-0.44,11-1.71c4.93,5.2,7.87,11.98,11.22,19.81l0.27,0.63C365.51,324.14,356.97,323.17,350.98,321.63z M366.85,296.81
		c2.52-1.2,5.04-2.81,7.51-4.96c0.48-0.41,0.69-1.06,0.54-1.68c-0.39-1.6-0.89-3.12-1.48-4.58c0.33-0.05,0.68-0.1,1.03-0.16
		c11.17,1.21,18.4,9.44,23.48,16.91c-6.57,6.8-14.5,11.2-21.19,11.79C373.96,307.71,371.12,301.69,366.85,296.81z M396.51,294.82
		c-3.96-4.69-9.1-9.19-15.75-11.44c4.54-2.26,9.3-6.52,12.78-14.41c6.88-0.27,15.51,4.71,20.45,11.86
		C409.15,287.86,402.6,293.09,396.51,294.82z M391.28,263.54c4.76-4.03,8.39-10.36,11.24-19.61c7.1,0.75,14.8,4.27,20.65,9.47
		c-4.34,8.18-9.49,14.45-14.37,17.51c-4.97-3.53-10.67-5.58-15.65-5.32C392.55,264.88,391.93,264.19,391.28,263.54z M426.55,254.26
		c0.08-0.16,0.16-0.31,0.24-0.46c0.35-0.67,0.21-1.49-0.34-2.01c-2.67-2.54-5.77-4.75-9.05-6.53c3.12-4.56,6.05-9.9,9.31-16.99
		c6.16,2.02,13.62,5.49,19.78,9.22c-3.94,7.68-9.25,15.19-14.53,20.56C430.2,256.74,428.39,255.47,426.55,254.26z M414.32,243.73
		c-3.57-1.59-7.27-2.66-10.85-3.11c0.14-0.69-0.14-1.4-0.75-1.78c-1.68-1.06-3.44-1.96-5.26-2.71c3.27-6.67,5.27-13.09,6.08-19.46
		c7.72,0.85,14.75,2.82,21.87,6.18C421.38,232.05,417.98,238.45,414.32,243.73z M399.83,241.07c-2.81,9.9-6.38,16.38-11.13,20.2
		c-4.81-3.78-11.02-6.31-18.78-7.65c2.61-5.14,3.97-10.79,4.34-15.06C382.07,235.54,391.87,236.5,399.83,241.07z M371.61,235.15
		c-7.42-2.8-14.4-3.94-22.13-3.6c-0.01-3.3-0.51-6.6-1.61-9.72c0.59-1.54,1.07-3.15,1.4-4.8c6.97-6.27,17.98-6.78,24.78-6.38
		C375.53,220.43,373.4,229.64,371.61,235.15z M369.6,207.16c-6.13,0.11-13.69,1.21-19.74,5.13c0.34-6.46-1.16-13.1-4.38-18.46
		c4.26-5.07,12.18-8.15,21.62-8.38C369.43,191.41,370.25,198.71,369.6,207.16z M342.49,192.14c-0.39,0.06-0.78,0.12-1.17,0.19
		c-1.64-8.91-4.6-15.92-9.2-21.79c5.74-4.7,12.36-7.86,20.19-9.58c2.98,7.57,4.96,14.67,6.19,22.1
		C351.6,184.58,345.95,187.74,342.49,192.14z M328.86,168.82c-1.53,0.56-3,1.23-4.41,1.97c-3.58-6.07-7.72-11.6-12.57-16.75
		c4.94-5.77,10.6-10.09,17.65-13.41c3.89,5.74,7.68,13.37,10.42,20.93C335.93,163.47,332.25,165.88,328.86,168.82z M321.52,172.52
		c-6.09,3.95-10.69,9.47-12.66,15.26c-3.89-6.36-11.19-12.93-16.5-15.2c3.05-7.09,7.58-12.52,15.14-18.18
		C313.02,159.92,317.61,165.88,321.52,172.52z M288.67,172.61c-0.34,0.32-0.68,0.66-1.02,1.02c-5.54-4.83-11.17-8.71-17.72-12.15
		c2.37-7.06,6.89-14.21,11.71-18.51c5.78,3.89,11.2,9.06,16.17,15.39C293.7,162.65,290.8,167.22,288.67,172.61z M266.87,159.93
		c-0.3-0.15-0.59-0.3-0.9-0.45c-0.77-0.37-1.7-0.1-2.16,0.62c-1.35,2.12-2.51,4.22-3.48,6.31c-4.69-2.52-10.97-5.32-18-6.95
		c1.17-6.68,3.67-13.57,7.65-20.96c8.52,3.68,16.62,8.8,21.04,12.5C269.35,153.85,267.93,156.89,266.87,159.93z M258.99,169.56
		c-2.47,6.49-3.07,12.82-1.8,18.89c-0.05,0.12-0.09,0.22-0.14,0.34c-5.77-3.09-13.33-4.92-22.14-5.34
		c-0.22-7.66,0.5-14.74,2.23-21.5C245.72,163.16,253.52,166.58,258.99,169.56z M255.89,192.05c-1.7,5.18-3.51,13-2.46,20.77
		c-4.11-1.1-8.71-1.57-13.82-1.36c-0.73,0.03-1.33,0.52-1.54,1.19c-0.71-0.14-1.45-0.26-2.23-0.36c-2.4-6.17-3.45-13.38-3.01-20.32
		c0.01-0.07,0.01-0.14,0.01-0.21c0.12-1.68,0.32-3.34,0.6-4.97C242.56,187.07,250.24,188.89,255.89,192.05z M237.89,216.07
		c-0.13,7.61,0.6,16.01,1.96,22.56c-1.55,0.27-3.09,0.59-4.62,0.98c-4.14-0.23-7.98-0.06-11.52,0.49
		c-4.06-4.69-8.25-15.02-8.29-22.96C223.68,214.69,232.13,214.92,237.89,216.07z M231.51,183.46c-0.56,0.18-1,0.65-1.12,1.25
		c-0.34,1.58-0.58,3.2-0.76,4.84c-5.57-1.57-13.74-2.02-20.99-1.16c-1.03-7.69-1.07-14.78-0.1-22.07c9.2,0.82,17.45,2.28,23.56,4.15
		C231.58,174.64,231.39,178.95,231.51,183.46z M229.38,193.01c-0.25,6.45,0.68,13.06,2.71,18.93c-5.66-0.33-12.37,0.19-18.88,2.33
		c-0.32,0.1-0.59,0.3-0.79,0.56c-2.89-4.78-4.58-9.92-5.11-15.53c0-0.01,0-0.01,0-0.01c-0.22-2.34-0.24-4.77-0.05-7.28
		C214.71,190.86,223.89,191.28,229.38,193.01z M210.97,218.85c-6.02,1.4-14.01,3.79-22.12,7.75c-3.44-7.28-5.69-13.92-7.31-21.64
		c8.9-1.94,16.78-3.24,22.56-3.74C204.94,207.61,207.22,213.44,210.97,218.85z M181.8,218.48c1.3,3.65,2.83,7.28,4.7,11.1
		c0.85,2.1,1.72,4.06,2.62,5.92c-6.66,2.3-13.2,5.86-18.84,10.3c-4.92-6.78-8.4-12.91-10.79-19.07
		C165.76,224.06,173.62,220.91,181.8,218.48z M167.66,247.97c-0.04,0.03-0.08,0.06-0.12,0.1c-0.61,0.54-0.75,1.44-0.33,2.15
		c1.62,2.7,3.33,5.17,5.1,7.4c-5.56,3.56-11.08,8.66-15.39,14.17c-1.78-1.52-3.5-3.14-5.18-4.88c-0.12-0.16-0.25-0.31-0.41-0.42
		c-3.53-3.7-6.98-7.92-10.87-12.84c0.45-0.28,0.93-0.57,1.39-0.86c0.05-0.02,0.09-0.05,0.13-0.08c5.9-3.61,13.19-7.71,21.37-11.06
		C164.65,243.71,166.08,245.81,167.66,247.97z M154.91,274.53c-0.39,0.56-0.76,1.11-1.12,1.67c-0.41,0.64-0.34,1.47,0.16,2.04
		c2.49,2.81,4.99,5.14,7.53,7.21c-4.82,4.91-9.09,10.87-12.15,16.13c-7.24-4.27-12.84-8.18-18.61-14.19
		c4.89-5.54,11.81-12.75,19.32-17.36C151.61,271.61,153.23,273.11,154.91,274.53z M164.19,287.55c2.86,2.12,5.77,4,8.76,5.93
		l1.26,0.81c1.65,1.69,3.37,3.18,5.18,4.47c-3.62,4.36-7.13,9.56-9.46,17.22c-7.19-2.05-13.46-4.71-19.93-8.48
		C152.88,301.6,158.1,293.66,164.19,287.55z M182.28,300.6c4.92,2.8,10.43,4.23,16.63,4.36c0.31,0.16,0.62,0.32,0.94,0.48
		c-2.93,5.71-4.89,13.35-5.41,20.79c-9.21,0.54-15.72-0.8-22.43-4.63C174.09,311.62,178.12,305.56,182.28,300.6z M198.14,301.53
		c-8.24-0.35-15.1-3.3-20.9-9.02c2.2-5.95,7.45-13.31,13.96-17.15c4.09,4.17,9.87,8.24,15.97,9.98
		C203.41,289.7,200.29,295.25,198.14,301.53z M215.76,282.15c4.02,4.38,10.45,9.63,19.76,12.46c-0.55,1.3-1,2.61-1.37,3.93
		c-3.87,2.67-6.86,5.92-9.07,9.97c-8.13-0.45-16.8-2.67-23.66-6.08C204.52,293.49,209.66,286.22,215.76,282.15z M235.77,301.56
		c4.39,2.12,9.1,4.07,14.03,5.18c-1.83,6.23-2.79,12.19-2.86,17.53c-4.92,0.9-13.05,1.07-22.89-0.85
		C225.49,312.94,229.06,306.3,235.77,301.56z M225.35,354.55c1.1,0,2.22-0.04,3.37-0.12c-0.72,6.48,0.64,15.34,4.06,21.67
		c-3.3,2.08-7.2,3.72-11.44,4.83c-0.03,0.01-0.06,0.01-0.09,0.02c-2.96,0.77-6.08,1.27-9.24,1.48c-2.63-8.3-2.62-16.7-2.19-23.42
		C215.35,358.29,221.09,356.82,225.35,354.55z M232.18,354.08c6.43-0.85,13.09-2.88,17.77-6.61c0.86,5.33,2.96,9.98,6.31,13.91
		c0.32,0.39,0.8,0.6,1.29,0.6c0.13,0,0.27-0.02,0.4-0.05c0.22-0.05,0.44-0.11,0.66-0.17c-4.89,7.97-12.69,13.35-21.6,14.75
		C232.88,370.72,231.23,360.63,232.18,354.08z M260.98,364.34c1.45,6.6,5.33,12.42,11.32,16.92c-2.52,6.54-8.69,12.64-15.85,15.63
		c-6.63-4.96-9.09-12.52-10.49-19.54C252.01,374.64,257.22,370.15,260.98,364.34z M275.17,383.21c0.14,0.09,0.28,0.19,0.43,0.27
		c0.27,0.17,0.57,0.25,0.87,0.25c0.31,0,0.62-0.09,0.89-0.25c1.15-0.7,2.22-1.43,3.24-2.18c1.86,5.44,6.96,11.29,13.66,14.4
		c-1.64,6.57-5.97,12.14-13.47,17.36c-1.05-0.62-2.04-1.3-2.96-2.03c-0.01-0.01-0.02-0.02-0.03-0.02c0-0.01-0.01-0.01-0.01-0.01
		c-6.25-4.97-9.68-12.33-9.62-17.82C271.21,390.26,273.65,386.84,275.17,383.21z M283.48,378.98c4.77-4.26,7.78-9.28,9.14-15.26
		c3.38,3.83,9.31,7.45,16.86,10.23c-0.33,6.91-3.39,15.39-9.76,20.07C291.43,392.06,284.8,384.85,283.48,378.98z M312.9,373.32
		c0.24-0.35,0.49-0.71,0.73-1.08c4.55,4.92,12.59,8.21,19.41,8.91c0.86,9.51-1.38,16.57-6.84,21.51
		c-7.84-1.59-15.48-7.54-17.64-13.74C311.4,383.96,312.79,378.23,312.9,373.32z M315.44,369.13c2.87-5.4,4.98-11.88,5.74-17.76
		c3.9,2.12,8.37,3.46,13.28,3.92c0.05,0.01,0.11,0.01,0.16,0.01c0.62,0,1.2-0.34,1.5-0.9c0.55-1.04,1.03-2.06,1.47-3.07
		c0.74,0.43,1.5,0.82,2.29,1.17c0.91,8.93-0.34,18.46-3.34,25.38C329.17,378.29,319.51,374.26,315.44,369.13z M336.47,381.28
		c0.48-0.02,0.95-0.05,1.4-0.1c0.58-0.06,1.09-0.43,1.35-0.96c0.67-1.44,1.27-2.99,1.8-4.62c5.63,3.17,11.75,4.72,18.85,4.72
		c0.16,0,0.34-0.01,0.51-0.01c0.94,7.98-0.01,14.72-3.1,21.47c-10.83-1.45-18.66-5.18-21.27-10.11
		C336.63,388.54,336.78,385.08,336.47,381.28z M341.96,372.22c1.38-5.7,1.9-12.16,1.45-18.4c4.9,1.51,10.2,1.98,14.15,1.98
		c2.21,0,4-0.15,5.06-0.34c0.01,0,0.02,0,0.03,0c2.37,5.45,2.81,12.72,1.25,21.29C355.31,377.44,348.28,375.98,341.96,372.22z
		 M361.2,326.22c5.06-0.21,10.79-1.62,16.83-5.48c0.07-0.05,0.12-0.12,0.18-0.17c6.18,6.17,9.3,12.3,10.33,20.12
		c-7.53,4.34-15.92,5.5-23.34,3.25C365.21,337.83,363.88,331.96,361.2,326.22z M379.58,317.15c6.27-1.24,13-5.01,18.99-10.67
		c7.59,5.99,10,12.42,12.51,19.22c-8.08,4.27-14.61,6.55-20.82,7.31C388.32,327.23,384.92,322.22,379.58,317.15z M400.99,304.05
		c0.12-0.13,0.24-0.25,0.37-0.38c0.52-0.58,0.59-1.44,0.16-2.09c-0.83-1.25-1.74-2.57-2.75-3.91c5.75-2,11.53-6.46,16.24-12.49
		c6.96,3.9,11.18,10.52,14.1,16.24c-6.38,6.36-14.02,10.22-20.79,10.52C406.5,309.25,404.17,306.61,400.99,304.05z M445.55,276.74
		c-0.52-0.49-1.05-0.98-1.58-1.47c0.69-0.77,1.34-1.55,1.96-2.33c0.49-0.63,0.49-1.51-0.01-2.13c-2.59-3.22-6.62-7.01-11.24-10.68
		c4.07-4.2,8.13-9.58,11.61-15.32c7.03,3.73,14.51,9.09,18.68,12.85C459.47,264.93,453.08,271.19,445.55,276.74z M448.51,242.14
		c6.08-2.54,10.77-7.71,14.82-13.71c6.42,2.26,13.88,6.61,19.3,11.24c-3.84,6.35-9.7,13.71-14.98,15.84
		C463.51,251.68,455.82,246.11,448.51,242.14z M450.33,237.35c0.22-0.72-0.06-1.51-0.72-1.92c-3.72-2.36-8.96-5.22-14.57-7.64
		c3.27-5.41,6.16-11.16,8.84-17.6c9.45,2.6,15.91,5.4,21.06,9.15C460.81,226.5,456.28,233.5,450.33,237.35z M431.85,226.49
		c-1.24-0.49-2.48-0.94-3.73-1.35c0.35-0.79,0.71-1.6,1.07-2.43c0.35-0.83,0-1.8-0.81-2.2c-4.37-2.17-8.68-3.84-13.11-5.07
		c2.52-6,4.81-12.97,6.72-19.34c7.14,1.33,14,3.29,21.36,6.14C439.93,211.53,436.23,219.3,431.85,226.49z M422.55,188.47
		c-5.63-1.95-11.72-3.11-17.96-3.47c1.47-5.43,2.77-12.21,3.95-19.26c6.66-0.96,15.76-0.86,22.77,0.22
		c-1.42,9.01-4.41,17.19-8.23,22.81C422.93,188.64,422.75,188.54,422.55,188.47z M419.91,191.18c-2.15,7.37-4.9,16.22-7.98,23.43
		c-2.63-0.59-5.31-1.02-8.08-1.32c0.03-0.45,0.07-0.89,0.09-1.34c0.02-0.77-0.47-1.46-1.21-1.68c-2.6-0.8-5.21-1.4-7.79-1.81
		c1.38-6.59,2.26-13.7,2.51-20.13C403.24,188.08,411.33,188.47,419.91,191.18z M400.48,213.15c-0.44,7.12-2.5,14.29-6.24,21.84
		c-6.29-1.92-12.98-2.09-18.9-0.38c1.62-5.47,3.23-13.53,2.34-22.23C383.75,210.57,392.24,210.85,400.48,213.15z M391.56,208.02
		c-5.25-0.51-10.2-0.19-14.34,0.96c-0.02-0.08-0.03-0.16-0.04-0.23c-0.14-0.76-0.77-1.33-1.53-1.39c-0.81-0.07-1.71-0.12-2.65-0.16
		c0.6-8.04-0.09-15.15-2.08-21.16c7.69-2.31,15.48-2.91,23.21-1.75C394.16,191.45,393.2,200.27,391.56,208.02z M369.68,182.87
		c-0.31-0.51-0.84-0.84-1.45-0.84c-2.2,0-4.33,0.15-6.38,0.43c-1.13-6.84-2.89-13.41-5.44-20.28c7.95-3.09,14.94-4.84,21.75-5.41
		c1.3,7.07,2.23,15.59,2.59,23.85C377.05,181,373.35,181.75,369.68,182.87z M355.18,159.01c-0.08-0.22-0.16-0.43-0.25-0.64
		c-0.3-0.76-1.1-1.18-1.9-1.03c-3.52,0.69-6.83,1.64-9.94,2.86c-2.26-6.2-5.22-12.45-8.37-17.74c6.61-4.26,13.12-7.37,21.19-10.13
		c2.36,8.72,4.09,16.58,5.42,24.49C359.34,157.46,357.29,158.19,355.18,159.01z M355.69,128.83c-6.24,2.08-11.58,4.35-16.7,7.14
		c-2.05-6.93-4.51-13-7.54-18.54c6.46-5.28,12.98-8.84,20.32-11.06C356.03,115.07,357.38,122.79,355.69,128.83z M335.96,137.7
		c-1.01,0.6-2.03,1.23-3.04,1.88c-0.47-0.72-0.94-1.41-1.41-2.07c-0.47-0.66-1.34-0.9-2.08-0.57c-4.03,1.79-7.63,3.87-10.93,6.3
		c-2.57-4.18-6.03-9.22-10.65-15.51c4.44-5.26,10.15-9.87,17.42-14.02C329.84,120.66,333.26,128.37,335.96,137.7z M315.8,145.36
		c-2.24,1.88-4.32,3.95-6.3,6.24c-0.22-0.22-0.43-0.44-0.65-0.65c-0.59-0.58-1.51-0.65-2.18-0.16c-2.38,1.72-4.51,3.44-6.42,5.19
		c-4.32-5.47-8.99-10.1-13.94-13.84c3.5-6.01,9.5-12.21,15.84-16.37C306.38,131.4,311.9,138.96,315.8,145.36z M301.69,122.04
		c-4.8,2.91-9.5,7-13.3,11.42c-4.02-5.44-8.79-10.4-13.21-14.71c3.91-7.06,9.28-13.18,15.02-17.07c5.23,5.56,9.23,12.34,11.96,20.17
		C302,121.89,301.84,121.95,301.69,122.04z M286.18,136.21c-0.98,1.31-1.87,2.64-2.65,3.96c-0.37-0.25-0.73-0.51-1.1-0.75
		c-0.62-0.4-1.42-0.35-1.99,0.11c-2.67,2.16-5.29,5.15-7.59,8.57c-3.88-3.17-10.11-7.2-16.98-10.61c2.79-7.7,6.75-13.86,12.95-20.14
		l0.31,0.3C274.5,122.79,281.11,129.14,286.18,136.21z M255.62,129.52c-4.3-3.86-9.62-7.42-15.41-10.35
		c2.06-7.83,5.91-15.73,10.13-20.83c7.53,4.58,13.4,10.42,16.4,16.28C261.93,119.44,258.36,124.18,255.62,129.52z M254.1,132.74
		c-0.47,1.06-0.9,2.16-1.32,3.28c-0.96-0.43-1.93-0.86-2.91-1.26c-0.8-0.33-1.71-0.01-2.13,0.74c-2.32,4.17-4.18,8.18-5.65,12.1
		c-5.29-2.85-11.71-5.41-18.09-7.25c0.58-6.42,2.8-14.89,7.49-21.34C240.12,122.33,248.23,127.26,254.1,132.74z M240.96,150.86
		c-0.85,2.68-1.5,5.32-1.96,7.94c-0.97-0.16-1.94-0.31-2.93-0.42c-0.82-0.09-1.6,0.43-1.83,1.24c-0.68,2.44-1.21,4.93-1.64,7.45
		c-5.24-1.56-11.88-2.82-19.27-3.68c0.38-9.02,1.54-15.71,3.69-21.29c1.56,0.33,3.14,0.71,4.73,1.14c0.01,0.01,0.02,0.01,0.04,0.01
		C228.54,145.1,235.44,147.81,240.96,150.86z M214.41,139.48c-1.75,4.12-2.96,8.73-3.7,14.31c-5.68-1.13-12.31-2.19-18.97-3.05
		c-0.85-8.59,0.66-17.83,3.73-22.95c9.09,1.95,16.16,5.76,20.08,10.73C215.06,138.65,214.62,138.99,214.41,139.48z M210.33,157.19
		c-0.17,1.84-0.3,3.79-0.39,5.85c-0.9-0.09-1.8-0.17-2.72-0.24c-0.88-0.07-1.68,0.55-1.81,1.44c-0.61,3.94-0.92,7.82-0.96,11.74
		c-6.11-0.29-13.43-0.18-20.24,0.29c-0.54-5.5-0.83-14.1-0.12-23C193.05,154.21,202.61,155.64,210.33,157.19z M204.48,179.39
		c0.09,3.1,0.36,6.26,0.8,9.52c-0.7,0.17-1.22,0.75-1.3,1.47c-0.25,2.57-0.31,5.05-0.18,7.45c-6.35,0.55-13.91,1.92-19.7,3.11
		c-2.45-7.28-3.93-14.15-4.5-20.87C187.57,179.27,196.99,179.01,204.48,179.39z M180.75,201.65c-0.55,0.12-1.09,0.24-1.58,0.35
		c-0.9,0.2-1.48,1.08-1.3,1.98c0.78,3.99,1.71,7.68,2.85,11.28c-7.13,2.12-13.97,4.76-19.77,7.17c-3.28-7.61-5.8-14.46-7.29-22.1
		c8.43-1.78,17.25-3.38,25.55-3.72C179.67,198.27,180.19,199.95,180.75,201.65z M155.2,217.39c-5.67,0.83-12.63,3.24-18.81,6
		c-4.5-8.25-7.28-15.07-8.6-21.19c6.9-2.52,14.5-3.43,22.26-2.7C151.16,205.8,152.92,211.51,155.2,217.39z M156.5,220.65
		c0.43,1.02,0.86,2.05,1.31,3.1c-0.38,0.16-0.78,0.33-1.15,0.49c-0.83,0.36-1.24,1.29-0.93,2.14c1.47,4.09,3.39,8.15,5.83,12.33
		c-7,2.91-13.36,6.33-18.73,9.52c-4.97-6.16-9.15-14.28-11.25-18.71C139.05,225.53,149.36,221.48,156.5,220.65z M139.61,249.64
		c-6.53,0.29-13.4,3.32-19.08,7.01c-5.36-6.31-9.66-12.23-13.05-17.98c5.44-3.55,13.95-7.26,20.85-8.06
		C130.36,234.9,134.54,243.13,139.61,249.64z M136.28,253.48c0.04,0.28,0.15,0.55,0.33,0.78c3.99,5.07,7.48,9.41,11.03,13.26
		c-5.44,3.44-10.5,8.09-14.74,12.48c-7.81-5.61-13.04-10.81-16.25-16.2C121.94,259.23,129.36,254.88,136.28,253.48z M130.55,282.5
		c-1.05,1.13-2.02,2.23-2.93,3.26c-4.38,0.28-9.59,3.81-13.84,8.41c-5.73-3.82-12.63-9.45-16.91-13.44
		c5.5-7.17,11.18-12.24,16.92-15.08C117.21,271.32,122.59,276.74,130.55,282.5z M127.72,289.16c4.42,4.69,8.67,8.16,13.53,11.4
		c-3.41,3.77-7.3,9.12-11.14,15.28c-8.58-3.79-15.09-8-18.97-12.25C115,296.29,122.76,289.57,127.72,289.16z M144.14,302.43
		c1.14,0.71,2.31,1.42,3.54,2.14c-0.54,1.01-1.02,1.99-1.43,2.9c-0.35,0.79-0.06,1.71,0.67,2.16c4.01,2.41,7.91,4.41,11.95,6.1
		c-3.88,5.02-7.32,11.29-9.92,18.02c-7.55-2.46-14.39-5.68-19.91-9.44C134.12,315.29,139.63,307.3,144.14,302.43z M162.17,317.03
		c2.22,0.82,4.51,1.56,6.88,2.24c-0.22,0.92-0.43,1.87-0.62,2.86c-0.13,0.7,0.19,1.41,0.79,1.77c2.56,1.55,5.09,2.76,7.72,3.68
		c-2.18,5.04-3.93,11.74-4.86,18.41c-7.82-1.06-15.57-3.18-21.71-5.98C153.05,331.34,157.29,323.1,162.17,317.03z M197.71,329.63
		c0.06-8.01,2.05-16.64,5.23-22.77c6.28,2.65,13.57,4.42,20.58,4.96c-1.49,3.65-2.48,7.86-3.04,12.76c-0.1,0.87,0.48,1.67,1.34,1.85
		c0.36,0.08,0.72,0.15,1.08,0.22c-0.04,0.13-0.08,0.25-0.12,0.39C217.36,330.57,206.73,331.66,197.71,329.63z M201.39,333.71
		c1.91,0.23,3.84,0.34,5.75,0.34c5.48,0,10.76-0.94,14.78-2.7c-0.8,5.72-0.67,13.25,1.05,20.61c-6.09,2.93-15.28,4.29-21.81,4.18
		C199.3,348.42,199.91,339.54,201.39,333.71z M209.2,384.76c0.24,0.69,0.88,1.15,1.61,1.15c0.02,0,0.04-0.01,0.07-0.01
		c3.23-0.13,6.44-0.57,9.52-1.25c1,6.72,3.05,12.98,6.25,18.92c-5.92,2.4-14.61,4.71-23.14,6.12l-0.09-1.22
		c-0.7-8.85-1.29-16.57-1.26-24.12c2.3-0.28,4.5-0.63,6.57-1.03C208.88,383.8,209.03,384.28,209.2,384.76z M223.71,383.79
		c4.01-1.17,7.73-2.79,10.92-4.8c0.11,0.13,0.2,0.28,0.31,0.41c0.32,0.4,0.81,0.63,1.32,0.63c0.07,0,0.14,0,0.21-0.01
		c2.15-0.27,4.25-0.75,6.28-1.41c1.31,6.36,3.52,13.09,8.64,18.33c-5.19,4.61-11.28,7.71-19,9.62
		C227.72,399.5,224.89,392.02,223.71,383.79z M253.93,399.23c0.43,0.34,0.86,0.67,1.32,0.99c0.29,0.2,0.63,0.3,0.97,0.3
		c0.2,0,0.41-0.04,0.6-0.11c2.91-1.11,5.66-2.65,8.14-4.51c0.79,5.47,3.96,11.85,9.45,16.7c-0.99,1.21-1.99,2.35-3.04,3.44
		c-0.01,0.01-0.01,0.02-0.02,0.03c-3.38,3.49-7.22,6.45-12.36,9.59c-5.82-5.05-10.03-12.97-11.47-21.6
		C249.81,402.67,251.92,401.04,253.93,399.23z M253.71,425.19c1.26,1.43,2.62,2.74,4.06,3.89c0.31,0.24,0.68,0.37,1.06,0.37
		c0.3,0,0.6-0.08,0.87-0.24c4.93-2.94,8.82-5.77,12.2-8.93c2.65,6.24,6.4,11.88,11.34,17.04c-6.76,5.76-12.76,10.33-18.24,13.88
		c-1.34-1.67-2.63-3.46-3.87-5.38c0-0.01-0.01-0.02-0.02-0.04c-3.51-5.42-6.6-11.81-9.25-19.07
		C252.49,426.21,253.1,425.71,253.71,425.19z M274.52,417.65c0.88-0.94,1.73-1.92,2.56-2.95c0.95,0.66,1.94,1.29,2.99,1.86
		c0.25,0.13,0.53,0.2,0.8,0.2c0.34,0,0.67-0.1,0.95-0.29c3.81-2.55,6.9-5.2,9.35-8c3.35,6.2,8.44,11.48,13.06,15.13
		c-3.33,5.09-7.77,9.97-14.17,15.52C282.79,432.81,277.71,425.75,274.52,417.65z M293.47,405.52c1.86-2.69,3.17-5.54,3.98-8.6
		c0.76,0.23,1.53,0.43,2.31,0.59c0.11,0.02,0.22,0.03,0.33,0.03c0.34,0,0.67-0.1,0.95-0.29c2.03-1.37,3.78-3.07,5.27-4.97
		c2.79,5.35,8.59,10.13,15.13,12.54c-1.92,7.14-5.84,12.99-12.2,18.22c-0.4-0.26-0.8-0.54-1.21-0.83c-0.14-0.23-0.32-0.43-0.57-0.58
		c-0.15-0.09-0.31-0.15-0.47-0.19C302.18,417.79,296.68,412.16,293.47,405.52z M306.98,425.62c0.51,0.34,1,0.67,1.48,0.96
		c0.27,0.17,0.58,0.26,0.89,0.26c0.37,0,0.74-0.13,1.05-0.37c5.07-3.97,8.86-8.41,11.46-13.41c3.82,5.46,9.94,9.89,15.84,12.55
		c-0.32,0.65-0.65,1.32-0.99,1.99c-0.01,0.01-0.01,0.02-0.02,0.03c-2.64,5.23-6.08,11.17-11.75,16.97
		c-6.39-4.02-14.45-11.48-18.24-18.56C306.8,425.9,306.89,425.76,306.98,425.62z M323.53,409.34c0.44-1.15,0.83-2.32,1.17-3.53
		c0.57,0.14,1.15,0.26,1.73,0.35c0.09,0.02,0.18,0.02,0.27,0.02c0.4,0,0.79-0.14,1.1-0.4c3.24-2.73,5.57-6.02,7.02-9.9
		c3.48,3.96,9.67,6.94,17.83,8.57c-1.43,7.95-4.35,14.12-9.35,19.66C336.22,422.02,327.55,416.47,323.53,409.34z M340.86,426.88
		c0.87,0.31,1.73,0.58,2.56,0.79c0.14,0.04,0.28,0.05,0.42,0.05c0.47,0,0.91-0.18,1.24-0.53c4.09-4.32,6.98-8.96,8.91-14.39
		c4.95,3.01,10.69,5.51,17.87,7.74c-1.7,6.72-3.4,12.42-6.6,20.92c-10.61-3.94-18.41-8.15-24.94-13.47
		C340.51,427.61,340.69,427.25,340.86,426.88z M355.04,409.45c0.38-1.41,0.71-2.88,0.99-4.41c0.67,0.09,1.36,0.19,2.06,0.27
		c0.07,0.01,0.13,0.01,0.2,0.01c0.64,0,1.23-0.36,1.52-0.95c2.04-4.15,3.34-8.36,3.94-12.77c5.48,3.01,12.04,4.84,19.1,5.37
		c-0.36,5.96-1.94,15.12-3.8,22.1C368.59,416.32,361.26,413.38,355.04,409.45z M364.08,387.86c0.12-2.48,0.03-5.04-0.28-7.7
		c0.57-0.05,1.13-0.08,1.71-0.14c0.74-0.07,1.34-0.62,1.49-1.36c0.56-2.76,0.92-5.4,1.09-7.93c3.65,1.17,8.18,1.79,12.97,1.79
		c2.64,0,5.35-0.21,8.04-0.58c1.36,5.79,1.18,13.71-0.51,21.78C379.33,393.97,370.7,391.89,364.08,387.86z M389.84,368.35
		c-0.08,0.02-0.16,0.06-0.24,0.1c-7.77,1.19-16.01,0.73-21.39-1.27c-0.02-6.13-1.26-11.4-3.71-15.58c0.25-1.4,0.43-2.79,0.54-4.17
		c2.54,0.69,5.16,1.04,7.82,1.04c5.07,0,10.25-1.25,15.16-3.67c2.62,6.08,4,14.55,3.78,23.27c-0.41,0.08-0.83,0.15-1.24,0.22
		C390.32,368.26,390.08,368.27,389.84,368.35z M391.01,343.17c0.08-0.05,0.16-0.09,0.24-0.14c0.56-0.34,0.87-0.97,0.8-1.62
		c-0.19-1.77-0.47-3.46-0.85-5.08c5.7-0.77,11.62-2.72,18.57-6.15c4.35,5.84,6.96,12.63,8.09,21.19
		c-7.32,1.88-16.39,2.47-23.86,1.58C393.37,349.67,392.42,346.31,391.01,343.17z M416.52,334.69c-1.06-2.13-2.29-4.15-3.68-6.07
		c0.39-0.21,0.77-0.41,1.16-0.62c0.75-0.41,1.08-1.3,0.79-2.09l-0.5-1.34c-1.15-3.11-2.32-6.26-4-9.38
		c6.07-0.75,12.56-3.85,18.32-8.71c4.54,5.53,8.2,12.08,10.66,19.12C432.16,329.94,424.17,333.12,416.52,334.69z M441.7,332.94
		c6.25-1.55,12.28-3.61,18.2-6.25c3.76,5.03,6.96,11.33,10.22,20.11c-5.48,2.69-12.32,5.11-21.74,4.77
		C446.89,345.27,444.57,338.83,441.7,332.94z M440.1,329.83c-0.1-0.19-0.21-0.39-0.32-0.58c0.82-0.49,1.65-0.97,2.45-1.48
		c0.65-0.41,0.95-1.22,0.7-1.96c-1.7-5.23-4.04-10.22-6.88-14.79c5.82-2.74,11.75-6.19,17.96-10.45
		c3.83,5.05,7.79,11.57,11.79,19.46C457.46,324.49,449.02,327.7,440.1,329.83z M456.79,298.62c0.83-0.59,1.66-1.19,2.49-1.81
		c4.2-0.57,9.55-3.07,14.33-6.46c5.8,5.38,11.22,12.05,14.55,17.96c-4.46,3.76-13.21,8.74-19.2,10.45
		C464.85,310.63,460.76,303.87,456.79,298.62z M459.44,293.35c-3.26-4.99-7.09-9.74-11.44-14.19c5.31-3.96,10.06-8.27,14.35-13.02
		c5.54,4.25,11.1,9.73,15.88,15.66C473.44,287.17,465.09,292.3,459.44,293.35z M464.59,263.57c1.27-1.52,2.51-3.07,3.7-4.68
		c3.53-1.23,7.15-4.29,10.44-8.05c6.96,3.68,13,8.31,17.56,13.51c-4.38,7.37-9.66,12.66-15.36,15.4
		C476.01,273.64,470.3,267.98,464.59,263.57z M490.36,229.13c-0.01,0.01-0.02,0.03-0.02,0.04c-1.76,2.81-3.66,5.37-5.7,7.75
		c-5.49-4.64-12.89-8.98-19.42-11.42c1.15-1.84,2.25-3.73,3.33-5.63c2.25-2.54,4.55-6.28,6.62-10.63
		c7.52,2.01,15.01,5.16,20.93,8.83C494.36,222.11,492.46,225.78,490.36,229.13z M452.45,187.39c-0.02,0.05-0.04,0.11-0.06,0.18
		c-1.71,5.03-3.91,9.36-7.12,11.77c-7.29-2.86-14.11-4.9-21.13-6.3c3.59-4.35,6.57-10.53,8.6-17.71c5.57-0.16,14.07,0.9,21.92,4.39
		C453.99,182.34,453.28,184.94,452.45,187.39z M432.17,162.66c-7.09-1.15-16.03-1.31-23.05-0.43c0.21-1.29,0.41-2.58,0.62-3.86
		c1.7-4.06,2.51-10.27,2.74-16.16c5.88-0.92,14.56-1.58,22.48-1.2C435.29,148.53,434.16,157.31,432.17,162.66z M406.96,156.14
		c-6.69-0.55-12.82-0.37-19.04,0.59c-0.08-7.79-0.58-14.53-1.15-20.35c6.44-1.98,13.74-3.05,22.23-3.25
		C409.51,140.55,408.9,150.58,406.96,156.14z M406.12,159.47c-1.42,8.92-3.1,18.56-5.03,25.41c-1.19-0.01-2.38,0.01-3.57,0.06
		c0-0.72,0.01-1.44-0.01-2.13c-0.02-0.81-0.61-1.5-1.4-1.64c-3.98-0.71-7.97-0.95-11.96-0.79c-0.29-6.48-0.92-13.1-1.8-19.11
		C390.31,159.42,397.78,158.84,406.12,159.47z M381.81,157.91c-0.19-1.13-0.39-2.22-0.59-3.28c-0.17-0.83-0.91-1.42-1.77-1.37
		c-4.82,0.29-9.69,1.13-14.84,2.57c-1.07-6.35-2.42-12.69-4.13-19.46c7.25-2.76,14.22-4.81,22.19-6.49l0.02,0.21
		c0.79,7.23,1.76,16.19,1.84,27.23C383.63,157.5,382.72,157.7,381.81,157.91z M359.62,133.06c-0.25-0.95-0.51-1.92-0.78-2.89
		c1.49-4.93,1.23-10.74-0.75-17.16c6-3.38,12.77-6.05,20.64-8.12c2.36,6.1,3.7,13.97,3.72,21.57
		C374.24,128.17,367.06,130.24,359.62,133.06z M356.95,109.75c-0.75-1.96-1.65-3.97-2.71-6.02c-1.05-3.97-2.46-7.93-4.14-11.63
		c5.87-4.63,12.4-8.39,19.89-11.46c3.73,6.86,6.28,13.76,7.78,21C369.9,103.72,363.05,106.38,356.95,109.75z M350.55,103.21
		c-7.51,2.3-14.21,5.92-20.82,11.23c-0.72-1.19-1.47-2.38-2.26-3.53c-0.24-4.68-1.86-9.89-4.45-14.74c3.92-3.7,9.88-8.18,17.8-13.36
		C344.83,88.15,348.36,95.57,350.55,103.21z M324.04,110.51c-7.18,4.05-12.97,8.52-17.58,13.62c-2.05-7-5.03-13.26-8.88-18.72
		c4.1-5.53,11.19-11.76,16.82-15.65C319.77,95.59,323.51,103.65,324.04,110.51z M295.45,102.59c-1.14-1.42-2.34-2.81-3.62-4.11
		c-1.9-3.53-4.69-7.07-8.32-10.61c4.19-7,9.08-12.86,14.57-17.43c5.65,4.26,10.44,9.84,14.3,16.59
		C306.91,90.81,299.95,96.8,295.45,102.59z M288.18,98.94c-5.91,4.05-11.43,10.23-15.53,17.37c-0.39-0.37-0.79-0.76-1.16-1.12
		l-1.3-1.24c-2.06-4.41-5.59-8.81-10.16-12.76c4-8.58,7.66-14.43,11.68-18.62C279.41,88.04,284.94,93.53,288.18,98.94z
		 M257.31,98.98c-1.95-1.49-4.06-2.89-6.28-4.18c-2.49-2.53-5.83-4.93-9.39-7.08c2.83-7.94,6.17-14.66,9.94-19.95
		c7.2,3.79,14.51,8.97,17.65,12.47C265.08,84.59,261.33,90.48,257.31,98.98z M247.65,96.27c-4.38,5.32-8.35,13.38-10.56,21.4
		c-1.61-0.73-3.24-1.4-4.89-2.02c-1.51-3.23-6.07-6.63-11.47-9.33c1.82-8.2,4.43-15.07,8.18-21.38
		C237.16,88.69,243.7,92.65,247.65,96.27z M228.96,116.73c-5.09,6.86-7.57,15.81-8.28,22.72c-0.18-0.04-0.36-0.09-0.53-0.13
		c-2.93-5.35-8.61-9.73-16.23-12.6c0.94-9.62,2.66-16.41,5.39-21.14C217.88,107.85,226.92,112.99,228.96,116.73z M200.61,125.61
		c-1.71-0.51-3.49-0.96-5.35-1.33c-3.81-2-8.32-3.58-13.17-4.66c0.12-8.92,1.01-16.12,2.66-21.42c9.64,1.68,16.96,3.76,21.41,6.06
		C203.38,109.26,201.59,116.13,200.61,125.61z M192.25,126.6c-3.16,5.69-4.71,14.86-3.97,23.71c-0.61-0.07-1.22-0.14-1.83-0.21
		c-4.35-3.49-10.75-5.33-17.19-6.06c-1.24-8.66-1.13-16.61,0.35-22.64C177.88,121.74,185.94,123.62,192.25,126.6z M174.99,148.53
		c2.23,0.56,4.27,1.29,6.02,2.15c-0.09,0.18-0.14,0.36-0.16,0.56c-0.62,6.58-0.7,13.01-0.49,18.41c-5.82-0.34-12.3-0.36-19.14-0.06
		c-2.13-8.1-2.62-15.65-1.44-22.49c2.73-0.12,5.41-0.04,7.96,0.2c0.01,0,0.01,0,0.02,0C170.32,147.54,172.76,147.95,174.99,148.53z
		 M180.53,173.06c0.08,1.25,0.18,2.41,0.29,3.48c-1.1,0.1-2.18,0.21-3.22,0.33c-0.9,0.1-1.57,0.89-1.51,1.79
		c0.3,4.78,1.05,9.62,2.24,14.59c-6.51,0.32-13.26,1.35-19.89,2.64c-3.54-10.57-4.61-17.84-5.22-22.42
		C163.11,172.71,172.48,172.57,180.53,173.06z M155.08,196.56c-0.14,0.03-0.28,0.06-0.42,0.09c-6.94-1.15-13.84-1.07-20.35,0.21
		c-3.17-6.5-5.44-14.22-6.32-21.58c7.22-2.32,17-2.94,21.78-1.99C150.38,177.89,151.38,185.42,155.08,196.56z M130.92,197.65
		c-1.89,0.51-3.74,1.12-5.55,1.83c-4.06,0.77-8.41,1.96-12.53,3.36c-5.45-10.95-7.77-17.52-8.74-20.98
		c6.27-3.19,13.04-5.11,20.57-5.89C125.58,183.35,127.8,191.05,130.92,197.65z M124.53,203.12c1.4,6.34,4.22,13.33,8.77,21.71
		c-1.58,0.77-3.07,1.55-4.45,2.31c-4.35,0.37-9.35,1.87-13.97,3.83c-5.91-8.17-9.76-15.06-11.42-20.5
		C109.03,207.51,117.14,204.68,124.53,203.12z M111.71,232.41c-2.76,1.35-5.28,2.81-7.28,4.22c-3.12,1.1-6.29,2.74-9.48,4.9
		c-4.98-6.15-9.34-12.3-12.96-18.31c4.88-3.78,12.37-8.35,18.39-11.22C102.19,217.63,105.92,224.34,111.71,232.41z M104.47,240.25
		c3.46,5.89,7.82,11.93,13.25,18.35c-1.53,1.13-2.93,2.28-4.17,3.4c-3.59,1.6-7.14,3.96-10.62,7.08c-6.21-4.67-11.89-10.3-16.2-16.1
		C92.7,246.87,98.79,242.51,104.47,240.25z M100.43,271.45c-2.35,2.37-4.68,5.08-6.95,8.14c-2.62,1.33-5.16,3.27-7.57,5.78
		c-8.41-6.5-13.81-11.37-17.07-14.56c5.17-7.27,10.28-12.54,15.24-15.73C88.46,260.97,94.17,266.68,100.43,271.45z M94.31,282.99
		c4.73,4.46,11.8,10.1,17.25,13.78c-1.48,1.91-2.76,3.91-3.74,5.88c-2.79,1.73-5.55,4.48-8.31,8.3
		c-6.23-2.33-13.71-6.69-19.35-11.28C84.24,291.72,89.2,285.87,94.31,282.99z M108.81,306.07c4.15,4.47,10.84,8.82,19.51,12.7
		c-0.48,0.82-0.97,1.65-1.45,2.49c-4.21,2.08-8.28,7.12-11.54,12.53c-6.23-2.36-13.59-5.75-19.88-9.16
		C100.02,315.35,104.5,309.12,108.81,306.07z M113.63,336.78c-1.77,3.28-3.19,6.51-4.14,9.12c-1.33,2.27-2.59,4.83-3.82,7.84
		c-7.13-1.77-16-4.82-21.54-7.41c2.74-8.62,5.9-14.95,9.43-18.87C99.86,330.9,107.27,334.34,113.63,336.78z M111.77,348.78
		c6.5,2.77,13.79,4.98,22.17,6.71c-0.92,2.72-1.72,5.32-2.36,7.62c-1.98,2.87-3.6,6.25-4.89,10.29c-9.27-1.71-16.78-3.47-22.34-5.25
		C106.9,359.49,109.24,353.4,111.77,348.78z M113.2,345.71c2.84-7.28,7.82-15.55,12.52-19.59c0.03,0.03,0.06,0.06,0.1,0.08
		c4.74,3.42,10.48,6.45,16.85,8.93c-2.83,4.92-5.47,11.16-7.61,17.12C126.76,350.56,119.57,348.41,113.2,345.71z M145.91,336.32
		c0.62,0.22,1.25,0.42,1.88,0.62c-0.39,1.17-0.76,2.33-1.1,3.51c-0.23,0.79,0.14,1.63,0.89,2c5.1,2.5,10.47,4.17,15.2,5.28
		c-2.23,6.77-3.76,13.19-5.12,19.42c-7.91-1.31-15.19-2.6-22.41-4.51C137.58,354.63,141.54,343.73,145.91,336.32z M159.33,375.63
		c0.21-0.98,0.42-1.98,0.63-2.97c1.64-7.74,3.35-15.74,6.17-24.2c2.08,0.41,3.96,0.7,5.56,0.92c-0.13,1.31-0.22,2.61-0.27,3.88
		c-0.04,0.85,0.56,1.59,1.39,1.74c3.96,0.72,7.58,1.19,11.01,1.41c-1.2,6-1.75,12.76-1.58,19.7
		C176.29,376.47,168.77,376.32,159.33,375.63z M198.51,427.9c-6.29,1.87-15.09,3.83-21.15,4.31c-1.45-6.36-1.8-15.49-0.03-21.65
		c7.8-0.02,14.08-0.78,19.71-1.74C196.87,415.43,197.4,422.05,198.51,427.9z M177.67,407.16c-0.47-7.64-0.67-18.02,0.65-27.49
		c1.43-0.02,2.78-0.08,4.07-0.15c0.08,1.38,0.18,2.76,0.31,4.15c0.09,0.85,0.8,1.51,1.66,1.53c0.92,0.02,1.83,0.03,2.76,0.03
		c3.92,0,7.86-0.18,11.64-0.53c-0.02,6.45,0.41,12.97,0.97,20.18C193.48,406.05,186.59,407.11,177.67,407.16z M185.95,381.82
		c-0.72-8.78-0.24-17.82,1.31-25.27c0.38,0.01,0.76,0.02,1.13,0.02c3.13,0,6.17-0.24,9.24-0.68c0.17,0.8,0.35,1.59,0.57,2.36
		c0.19,0.7,0.82,1.2,1.55,1.24c0.73,0.04,1.49,0.06,2.28,0.06c1.38,0,2.85-0.06,4.36-0.18c-0.36,6.01-0.35,13.24,1.43,20.66
		C201.39,381.25,193.61,381.9,185.95,381.82z M200.9,412.99c0.3,0.24,0.68,0.37,1.06,0.37c0.08,0,0.17-0.01,0.25-0.02
		c6.39-0.97,13.02-2.46,18.67-4.17c0.74,5.47,2.35,12.51,4.34,18.58c-7.19,4.32-14.52,6.74-20.94,8.47
		c-2.37-6.2-3.76-14.89-3.86-23.86C200.53,412.6,200.69,412.82,200.9,412.99z M226.38,431.03c0.7,1.85,1.43,3.53,2.17,4.97
		c-0.17,5.26,0.53,10.08,2.13,14.52c-5.01,3.5-11.45,6.48-19.97,9.95c-3.65-8.8-5.35-15.06-5.69-20.93
		C211.24,437.87,218.93,435.4,226.38,431.03z M228.85,427.91c-1.09-3.16-2.09-6.67-2.89-10.11c-0.81-3.44-1.43-6.81-1.79-9.69
		c1.51-0.51,2.91-1.03,4.18-1.56c0.6,0.97,1.22,1.94,1.88,2.9c0.32,0.47,0.85,0.74,1.4,0.74c0.13,0,0.26-0.01,0.38-0.04
		c4.61-1.05,8.68-2.49,12.37-4.35c1.21,6.17,3.73,11.99,7.2,16.75c-5.65,4.81-12.65,8.61-20.44,11.03
		C230.35,431.93,229.58,430,228.85,427.91z M249,428.78c2.45,6.54,5.26,12.4,8.42,17.5c-6.65,5.59-13.03,9.45-18.99,11.46
		c-1.72-2.29-3.08-4.67-4.11-7.18c-0.02-0.06-0.04-0.12-0.07-0.17c-1.65-4.09-2.4-8.54-2.32-13.52
		C238.17,434.95,243.95,432.21,249,428.78z M259.28,449.16c1.24,1.81,2.52,3.52,3.86,5.12c1.32,3.97,3.2,7.77,5.74,11.53
		c-5.94,5.75-12.84,10.86-17.87,14.06c-2.63-2.75-4.74-5.82-6.58-9.24c-0.02-0.03-0.03-0.05-0.05-0.08
		c-1.6-2.98-2.99-6.24-4.35-9.79C246.15,458.61,252.61,454.71,259.28,449.16z M266.69,454.15c4.97-3.2,10.33-7.21,16.28-12.15
		c2.59,5.44,6.84,10.87,10.85,15.32c-3.89,5.2-8.85,10.62-14.48,15.79C273.09,466.75,269.03,460.67,266.69,454.15z M285.69,439.75
		c1.05,0.98,2.14,1.96,3.29,2.91c0.31,0.26,0.7,0.4,1.09,0.4s0.78-0.14,1.1-0.41c5.69-4.84,9.98-9.19,13.35-13.58
		c3.1,5.13,8.04,10.29,12.94,14.29c-3.36,5.24-7.71,11.44-14.38,18.55C298.32,457.43,289.52,448.41,285.69,439.75z M320.16,445.45
		c1.3,0.95,2.56,1.79,3.77,2.52c2.02,3.73,5.53,7.24,10.5,10.48c-3.66,8.95-8.1,15.39-11.42,19.7c-6.91-3.17-12.02-7.9-16.35-15.1
		C312.79,456.35,316.92,450.48,320.16,445.45z M327.3,447.04c5.36-5.46,8.81-10.97,11.44-15.96c4.51,3.59,9.71,6.75,15.88,9.63
		c-2.56,8.09-5.57,14.96-8.77,19.99c-3.12-1.38-5.9-2.82-8.33-4.3c-0.04-0.03-0.09-0.06-0.14-0.09
		C332.64,453.39,329.27,450.29,327.3,447.04z M357.75,442.12c2.39,1.03,4.91,2.02,7.58,2.99c2.98,2.92,6.23,5.17,9.79,6.79
		c-2.02,8.14-4.19,14.91-6.75,21.04c-8.14-2.88-14.57-6.33-19.62-10.45C352.05,457.28,355.13,450.31,357.75,442.12z M368.24,443.19
		c3.37-8.88,5.13-14.77,6.88-21.67c0.07,0.02,0.15,0.04,0.22,0.06c5.83,4.57,11.42,7.45,17.03,8.73
		c-0.87,7.16-2.78,15.75-4.71,21.19c-3.57-0.23-6.81-0.93-9.8-2.1c-0.02-0.01-0.03-0.01-0.05-0.02
		C374.32,448,371.17,445.95,368.24,443.19z M381.71,421.95c0.06-0.11,0.13-0.22,0.16-0.35c1.42-4.91,2.92-12.03,3.77-18.38
		c5.52,1.28,12.58,2.23,19.42,3.01c-0.16,8.26-0.86,15.39-2.11,21.18C395.81,428.37,388.93,426.61,381.71,421.95z M386.04,399.83
		c0.09-0.94,0.16-1.84,0.21-2.7c0.31,0,0.61,0.01,0.92,0.01c0.95,0,1.91-0.02,2.88-0.07c0.76-0.04,1.41-0.57,1.58-1.32
		c1.34-5.83,1.92-11.55,1.76-16.65c4.7,1.22,10.54,1.88,16.3,1.88c0.92,0,1.84-0.02,2.75-0.05c1.11,6.67,1.7,13.34,1.1,22.79
		C404.57,402.78,393.61,401.63,386.04,399.83z M393.14,375.5c-0.15-1.44-0.38-2.82-0.68-4.12c0.45-0.09,0.91-0.16,1.36-0.26
		c0.75-0.17,1.29-0.82,1.33-1.59c0.12-2.69,0.16-7.58-0.58-13.08c2.1,0.21,4.29,0.32,6.53,0.32c4.75,0,9.69-0.47,14.21-1.35
		c1.94,6.67,3,13.91,3.13,21.58C410.25,378.16,400.06,377.56,393.14,375.5z M421.59,379.33c0.16-0.26,0.27-0.55,0.27-0.88
		c-0.02-6.12-0.6-12-1.71-17.56c5.4-0.44,12.44-1.63,19.12-3.83c2.49,6.87,4.31,13.68,5.65,21.2
		C439.93,379.66,430.64,381.5,421.59,379.33z M445.73,381.57c1.02,0.02,2.03,0.04,3,0.04c3.46,0,6.59-0.18,9.52-0.56
		c2.5,6.65,4.43,14.18,5.7,22.44c-5,1.8-14.29,2.87-21.55,2.48c-0.52-8.34-1.76-17.65-3.04-23
		C441.85,382.56,444.02,382.04,445.73,381.57z M448.35,378.21c-1.38-7.92-3.27-15.08-5.88-22.29c0.94-0.36,1.86-0.74,2.76-1.15
		c1.73,0.16,3.4,0.24,4.99,0.24c4.55,0,8.5-0.61,12-1.55c2.66,6.39,5.33,15.01,7.02,21.28
		C463.03,377.19,456.72,378.24,448.35,378.21z M465.49,352.45c2.71-0.95,5.14-2.08,7.36-3.22c3.22-0.74,6.49-1.89,9.85-3.43
		c4.33,6.86,7.72,13.87,9.86,20.44c-5.64,3.53-12.38,6.05-20.05,7.54C470.75,367.29,468.16,358.92,465.49,352.45z M473.31,345.6
		c-3.26-8.75-6.49-15.18-10.26-20.37c1.88-0.91,3.76-1.86,5.63-2.89c3.45-0.8,7.83-2.72,11.96-4.99
		c4.01,4.18,8.04,10.29,12.27,18.63C485.91,340.84,479.47,343.99,473.31,345.6z M490.97,306.37c-3.45-6.05-8.74-12.62-14.6-18.12
		c1.92-1.58,3.67-3.28,5.1-5.02c3.44-1.5,6.73-3.79,9.79-6.8c7.01,4.67,12.69,9.94,16.87,15.73
		C503.13,298.04,497.24,302.9,490.97,306.37z M493.61,273.92c2.18-2.51,4.22-5.41,6.08-8.65c1.8-1.53,3.61-3.46,5.53-5.91
		c7.03,3.95,13.07,8.66,18.38,14.36c-3.52,5.98-8.18,11.69-13.05,16.02C506.26,283.93,500.58,278.62,493.61,273.92z M513.43,240.58
		c-6.09-4.28-13.18-8.41-19.26-11.22c2.03-3.42,3.89-7.14,5.58-11.21c1-1.82,1.98-3.84,2.93-5.99c6.18,1.98,15.08,6.13,20.69,10.27
		C520.88,228.57,516.98,236.23,513.43,240.58z M497.57,215c-6.01-3.67-13.46-6.83-20.99-8.9c1.25-2.96,2.38-6.12,3.3-9.32
		c1.33-2.5,2.54-5.3,3.58-8.23c8.69,1.44,15.47,3.45,21.57,6.43C503.16,202.13,500.45,209.39,497.57,215z M437.79,153.24
		c7.02-0.52,14.44-0.22,22.58,0.96c-0.71,7.14-1.8,15.08-4.63,22.28c-7.83-3.41-16.24-4.59-22.12-4.56c0.52-2.23,0.94-4.54,1.27-6.9
		C436.28,161.79,437.23,157.59,437.79,153.24z M435.08,137.61c-7.11-0.34-15.57,0.09-22.52,1.14c0.01-2.76-0.1-5.33-0.29-7.41
		c0.1-4.23-0.01-8.13-0.32-11.76c5.97-1.82,13.51-3.02,22.53-3.54C435.65,124.14,435.84,131.38,435.08,137.61z M408.88,129.75
		c-8.5,0.19-15.89,1.24-22.46,3.18c-0.12-1.1-0.24-2.18-0.35-3.21l-0.21-1.98c0.08-4.61-0.33-9.37-1.16-13.85
		c7.43-3.22,14.72-5.28,21.73-6.1C408.2,113.82,409,121.05,408.88,129.75z M383.99,110.5c-0.69-2.89-1.55-5.6-2.57-8.02
		c0-0.01,0-0.02,0-0.03c-0.63-3.36-1.49-6.65-2.55-9.89c6.47-3.77,13.55-6.91,20.63-9.15c3.4,7.86,5.49,14.91,6.25,21.05
		C398.7,105.32,391.4,107.35,383.99,110.5z M377.71,89.3c-1.47-3.88-3.27-7.7-5.42-11.51c-0.86-2.39-1.83-4.66-2.88-6.83
		c7.81-5.16,14.34-8.28,19.85-9.45c3.94,6.09,6.96,13.24,8.98,18.75C391.2,82.5,384.18,85.59,377.71,89.3z M348.59,88.96
		c-1.8-3.52-3.83-6.71-5.96-9.36c-1.29-2.55-2.61-4.91-3.96-7.11c5.73-5.68,13.17-11.01,18.3-13.83c4.82,5.06,8.7,11.42,11.59,18.91
		C361.09,80.64,354.52,84.38,348.59,88.96z M338.98,79.95c-7.71,5.04-13.65,9.47-17.72,13.21c-1.54-2.41-3.31-4.66-5.25-6.63
		c-1.64-3-3.45-5.8-5.43-8.38c5.19-6.69,10.7-11.89,16.41-15.44c2.91,3.01,5.57,6.44,8.11,10.46c0.01,0.01,0.02,0.03,0.03,0.04
		C336.44,75.28,337.72,77.54,338.98,79.95z M308.38,75.46c-2.77-3.19-5.83-5.99-9.15-8.39c-1.44-1.88-3.21-3.81-5.21-5.71
		c4.53-7.49,9.96-13.19,15.46-16.21c6.82,4.3,12.22,10.23,15.4,14.89C319.12,63.69,313.58,68.86,308.38,75.46z M295.66,68.06
		c-5.52,4.64-10.45,10.51-14.7,17.46c-2.44-2.14-5.2-4.28-8.26-6.41c-1.32-1.78-3.54-3.82-6.21-5.87
		c3.36-7.38,7.57-13.74,12.55-18.91C285.41,58.08,291.68,63.26,295.66,68.06z M263.69,71.19c-3.77-2.65-8.02-5.18-11.76-7.07
		c-1.75-1.17-3.83-2.4-6.22-3.68c3.35-7.82,8.14-15.7,12.18-20.02c7.22,3.29,13.4,7.28,18.44,11.86
		C271.34,57.52,267.1,63.87,263.69,71.19z M248.65,66.06c-3.8,5.38-7.15,12.07-10,19.94c-3.33-1.84-6.71-3.45-9.67-4.76
		c-2.3-1.26-5.14-2.55-8.3-3.8c2.21-6.9,5.88-15.31,9.76-20.38C238.21,60.32,244.31,63.34,248.65,66.06z M225.86,83.45
		c-3.75,6.37-6.42,13.27-8.28,21.41c-2.8-1.19-5.69-2.16-8.42-2.82c-2.33-1.41-5.49-2.72-9.45-3.92
		c1.87-10.45,3.55-17.08,5.61-22.09C212.99,78.03,220.57,80.78,225.86,83.45z M156.38,146.97c-1.14,7-0.68,14.65,1.38,22.79
		c-2.08,0.12-4.19,0.26-6.32,0.44c-3.1-0.85-8.07-0.93-13.22-0.39c-2.7-7.38-4.18-14.56-4.47-21.89
		C142.07,146.54,149.34,146.24,156.38,146.97z M100.9,183.06c1.5,5.21,4.53,12.51,8.72,20.95c-3.35,1.28-6.43,2.68-8.92,4.1
		c-2.53,1.12-5.42,2.61-8.33,4.27c-4.08-5.69-8.39-13.94-11.18-20.04C87.07,188.32,95.77,184.58,100.9,183.06z M79.2,225.16
		c3.65,6.04,8.01,12.21,12.99,18.37c-2.9,2.23-5.82,4.88-8.74,7.95c-2.15,1.26-4.32,2.86-6.5,4.82c-5-4.94-9.66-10.35-13.46-14.77
		c-0.58-0.68-1.15-1.33-1.7-1.97C67.83,233.34,73.43,228.72,79.2,225.16z M66.63,273.4c3.32,3.25,8.73,8.11,17.03,14.53
		c-2.52,3.1-4.87,6.84-7.01,11.16c-1.02,0.96-2.15,2.32-3.41,4.11c-7.81-4.65-13.81-8.58-18.62-12.23
		C57.93,283.9,61.8,278.26,66.63,273.4z M78.15,302.42c5.66,4.57,13.07,8.92,19.41,11.42c-1.91,2.99-3.82,6.48-5.75,10.52
		c-1.5,1.51-2.91,3.35-4.26,5.53c-7.9-2.96-14.69-6.18-20.2-9.6C71.98,311.21,75.53,305.33,78.15,302.42z M82.78,349.45
		c5.68,2.64,14.36,5.65,21.65,7.49c-1.23,3.34-2.47,7.19-3.79,11.75c-0.93,2.15-1.78,4.59-2.55,7.3
		c-8.02-1.47-15.51-3.54-21.81-6.02C77.93,361.41,80.15,354.39,82.78,349.45z M98.27,392.97c1.11-8.79,2.81-16.2,4.95-21.62
		c5.69,1.84,13.1,3.6,22.52,5.34c-0.84,3.29-1.51,6.96-2.03,11.08c-0.74,2.21-1.32,4.85-1.78,7.94
		C114.74,395.37,104.48,394.28,98.27,392.97z M146.11,411.18c-6.51,0.16-15.02,0.24-22.23-0.13c0.59-9.24,1.3-16.13,2.67-20.95
		c5.78,1.04,14.98,1.69,21.73,1.8c-0.41,3.22-0.58,6.28-0.53,8.85C146.91,404.09,146.37,407.54,146.11,411.18z M127.27,386.78
		c1.28-9.28,3.4-16.01,6.61-20.99c7.09,1.9,14.17,3.21,21.81,4.48c-3.46,4.66-5.69,11.57-6.88,18.23
		C142.19,388.42,132.89,387.76,127.27,386.78z M150.78,402.74c3.2,0.26,6.54,0.39,9.98,0.39c4.31,0,8.78-0.21,13.28-0.62
		c0.08,2.2,0.2,4.27,0.32,6.14c-1.22,3.65-1.69,8.21-1.63,12.76c-8.47,1.7-16.85,2.82-23.02,3.09
		C148.94,416.23,149.3,409.25,150.78,402.74z M152.85,452.24c5.92-0.69,13.52-1.83,22.52-4.12c0.85,3.48,2.11,7.14,3.82,11.01
		c0.47,2.54,1.16,5.1,2.05,7.72c-6.81,2.63-15.66,4.88-21.94,6.16C156.16,466.61,154.05,459.78,152.85,452.24z M177.62,435.59
		c6.27-0.48,15.05-2.42,21.6-4.36c0.66,2.72,1.45,5.21,2.36,7.38c0.11,3.73,0.75,7.4,1.71,11c-6.12,3.41-16.01,6.53-21.41,7.19
		C178.49,448.83,177.11,441.87,177.62,435.59z M204.27,452.94c1.13,3.53,2.5,6.97,3.92,10.31c0.6,2.3,1.42,4.68,2.41,7.07
		c-6.41,4.63-12.77,7.87-19.37,9.84c-4.29-7.37-6.97-13.82-8.36-20.06C188.92,459.25,198.25,456.13,204.27,452.94z M232.03,453.74
		c1.14,2.38,2.57,4.64,4.28,6.81c1.38,3.71,2.79,7.12,4.38,10.28c-7.06,5.2-13.44,9.06-19.39,11.71c-4.28-5.9-7.64-12.64-9.45-18.86
		C220.32,460.23,226.83,457.24,232.03,453.74z M242.33,473.85c1.95,3.35,4.21,6.39,7.01,9.16c1.1,2.51,2.48,4.96,4.16,7.38
		c-5.48,5.53-12.13,10.12-18.6,12.79c-3.63-3.45-8.34-9.13-11.96-17.66C228.94,482.82,235.31,478.98,242.33,473.85z M252.94,482.67
		c5.07-3.24,11.95-8.32,17.95-14.06c2.01,2.62,4.33,5.23,7.02,7.88c1.46,2.67,3.18,5.15,5.21,7.46
		c-4.77,5.17-11.15,11.36-16.32,15.8C260.28,494.17,255.75,488.56,252.94,482.67z M281.44,475.78c5.68-5.2,10.73-10.65,14.73-15.93
		c2.31,2.41,4.39,4.39,5.84,5.71c0.33,0.29,0.74,0.44,1.15,0.44c0.38,0,0.76-0.14,1.08-0.4c1.76,2.83,3.65,5.29,5.71,7.44
		c-4.72,7.89-9.54,13.52-13.3,17.78C289.73,486.47,284.86,481.63,281.44,475.78z M325.79,480.1c3.38-4.39,7.85-10.88,11.58-19.86
		c2.46,1.41,5.2,2.76,8.22,4.05c2.29,1.98,4.85,3.79,7.7,5.48c-2.3,8.03-5.27,15.26-8.67,21.05
		C336.55,488.25,330.38,484.72,325.79,480.1z M371.48,474.29c2.59-6.2,4.79-13,6.84-21.14c3.1,1.03,6.42,1.62,10,1.79
		c2.35,1.41,5.15,2.64,8.21,3.61c-0.58,6.19-2.37,14.4-4.81,22.08C384.07,479.49,377.42,477.39,371.48,474.29z M390.91,452.52
		c2.19-6.21,4.01-15.17,4.82-21.64c1.13,0.13,2.27,0.2,3.41,0.2c1.03,0,2.06-0.06,3.1-0.16c4.1,2.09,8.11,3.49,12.34,4.24
		c-0.14,6.97-1.42,16.11-2.71,22.56c-4.38-0.1-8.92-0.82-13.03-2.01c-0.04-0.01-0.07-0.02-0.1-0.02
		C395.86,454.85,393.18,453.77,390.91,452.52z M406.08,429c1.4-6.1,2.19-13.63,2.37-22.4c1.69,0.19,3.34,0.36,4.93,0.53l1.25,0.13
		c3.13,1.71,7.77,2.73,13,2.98c0.88,7.07,0.54,15.57,0.14,21.92c-4.04,0.4-7.67,0.38-11.1-0.09c-0.08-0.02-0.17-0.03-0.25-0.03
		C412.87,431.53,409.5,430.53,406.08,429z M431.16,432.46c0.41-6.37,0.74-14.9-0.11-22.19c3.22-0.05,6.56-0.37,9.82-1
		c1.45,0.12,3.04,0.18,4.73,0.18c1.45,0,2.96-0.05,4.49-0.14c1.57,7,2.44,15.07,3.1,22.92C442.78,433.56,435.7,433.63,431.16,432.46
		z M467.25,402.6c-1.28-8.09-3.15-15.51-5.58-22.12c3.51-0.69,6.79-1.7,10.08-3.09c3.08-0.54,6.02-1.25,8.82-2.1
		c2.96,6.03,4.67,12.7,6.75,21.74C482.64,399.22,476.19,401.01,467.25,402.6z M495.61,364.67c-2.2-6.59-5.57-13.56-9.84-20.37
		c3.3-1.73,6.68-3.81,10.2-6.32c2.12-1.13,4.2-2.28,6.28-3.58c5.19,6.3,9.09,12.92,12.23,18.76
		C509.16,357.52,502.05,361.84,495.61,364.67z M515.48,318.93c-3.6-5.91-8.01-11.54-12.89-16.48c3.17-2.68,6.17-5.69,8.89-9
		c1.45-1.22,2.88-2.53,4.27-3.94c4.92,3.36,9.9,8.38,14.83,15C526.53,309.65,521.55,314.39,515.48,318.93z M341.47,39.8
		c6,4.45,10.17,10.49,13.48,16.1c-5.19,2.91-12.42,8.09-18.15,13.66c-2.56-3.82-5.26-7.13-8.21-10.05c-1.1-1.76-2.54-3.75-4.28-5.8
		C329.67,47.01,335.9,42.9,341.47,39.8z M284.26,45.15l0.06-0.44l0.11-0.44l0.15-0.41l0.19-0.4l0.24-0.38l0.27-0.35l0.31-0.32
		l0.34-0.29l0.37-0.25l0.39-0.21l0.42-0.16l0.42-0.13l0.44-0.07l0.45-0.03l0.44,0.01l0.44,0.06l0.43,0.11l0.42,0.15l0.4,0.2
		l0.38,0.23l0.35,0.28l0.32,0.31l0.29,0.34l0.25,0.37l0.2,0.39l0.17,0.41l0.12,0.43l0.08,0.44l0.03,0.44l-0.01,0.45l-0.06,0.44
		l-0.11,0.43l-0.15,0.42l-0.2,0.4l-0.24,0.38l-0.27,0.35l-0.31,0.32l-0.34,0.28l-0.37,0.25l-0.39,0.21l-0.41,0.17l-0.43,0.12
		l-0.44,0.08l-0.44,0.03l-0.45-0.02l-0.44-0.06l-0.43-0.11l-0.42-0.15l-0.4-0.19L286.05,49l-0.35-0.27l-0.32-0.31l-0.28-0.34
		l-0.25-0.37l-0.21-0.4l-0.17-0.41l-0.12-0.43l-0.08-0.43l-0.03-0.45L284.26,45.15z M141.03,120.84c0.14,3.9,0.63,11.06,2.15,22.54
		c-3.6,0.25-7.35,0.71-11.33,1.42c-2.35,0.01-4.95,0.26-7.85,0.74c-1.89-8.51-3.06-15.87-3.47-21.88
		C127.63,121.84,134.51,120.91,141.03,120.84z M72.45,343.94l-0.41,0.19l-0.42,0.14l-0.43,0.1l-0.44,0.06H70.3l-0.44-0.03
		l-0.44-0.09l-0.43-0.13l-0.4-0.17l-0.39-0.22l-0.37-0.25l-0.33-0.3l-0.31-0.32l-0.27-0.36l-0.23-0.38l-0.18-0.4l-0.15-0.42
		l-0.1-0.44l-0.05-0.44l-0.01-0.44l0.04-0.45l0.08-0.43l0.13-0.43l0.18-0.41l0.21-0.39l0.26-0.36l0.29-0.34l0.33-0.3l0.35-0.27
		l0.38-0.23l0.41-0.19l0.42-0.14l0.43-0.1l0.44-0.06h0.45l0.44,0.03l0.44,0.09l0.42,0.13l0.41,0.17l0.39,0.22l0.37,0.25l0.33,0.3
		l0.31,0.32l0.26,0.36l0.23,0.38l0.19,0.4l0.15,0.42l0.1,0.44l0.05,0.44l0.01,0.44l-0.04,0.45l-0.09,0.43l-0.13,0.43l-0.17,0.41
		l-0.22,0.39l-0.25,0.36l-0.29,0.34l-0.33,0.3l-0.35,0.27L72.45,343.94z M285.7,516.59c-6.22-4.42-11.02-9.28-15.32-15.45
		c4.93-4.34,10.67-9.94,15.09-14.72c2.89,2.84,6.31,5.43,10.35,7.88c1.22,1.62,2.52,3.12,3.88,4.52
		C296.23,505.04,291.33,511.27,285.7,516.59z M415.57,483.37c-6.27-0.21-12.77-1.17-20.21-2.98c2.26-7.35,3.87-14.85,4.49-20.9
		c4.22,1.05,8.72,1.64,13.04,1.64c0.07,0,0.14,0,0.21,0c1.93,0.42,3.89,0.74,5.87,0.99C418.28,470.51,417.16,477.51,415.57,483.37z
		 M502.61,381.61l-0.04,0.44l-0.1,0.44l-0.13,0.42l-0.18,0.41l-0.23,0.38l-0.26,0.36l-0.3,0.34l-0.33,0.29l-0.36,0.26l-0.38,0.23
		l-0.41,0.18l-0.42,0.14l-0.44,0.09l-0.44,0.04h-0.45l-0.44-0.04l-0.43-0.09l-0.43-0.14l-0.4-0.18l-0.39-0.23l-0.36-0.26l-0.33-0.29
		l-0.3-0.34l-0.26-0.36l-0.22-0.38l-0.18-0.41l-0.14-0.42l-0.09-0.44l-0.05-0.44v-0.44l0.05-0.45l0.09-0.43l0.14-0.43l0.18-0.4
		l0.22-0.39l0.26-0.36l0.3-0.33l0.33-0.3l0.36-0.26l0.39-0.22l0.4-0.18l0.43-0.14l0.43-0.09l0.44-0.05h0.45l0.44,0.05l0.44,0.09
		l0.42,0.14l0.41,0.18l0.38,0.22l0.36,0.26l0.33,0.3l0.3,0.33l0.26,0.36l0.23,0.39l0.18,0.4l0.13,0.43l0.1,0.43l0.04,0.45V381.61z"
		/>
</g>
</svg>
