<?xml version="1.0" encoding="utf-8"?>
<!-- Generator: Adobe Illustrator 21.1.0, SVG Export Plug-In . SVG Version: 6.00 Build 0)  -->
<svg version="1.1" xmlns="http://www.w3.org/2000/svg" xmlns:xlink="http://www.w3.org/1999/xlink" x="0px" y="0px"
	 viewBox="0 0 595.3 841.9" style="enable-background:new 0 0 595.3 841.9;" xml:space="preserve">
<g id="Слой_1">
</g>
<g id="Слой_2">
	<g id="XMLID_1_">
		<g>
			<path d="M340,29c-5.5,3.1-11.7,7.1-17,13.7c1.7,2,3.1,4,4.2,5.7c2.9,2.9,5.6,6.2,8.1,9.9c5.7-5.5,12.8-10.6,17.9-13.5
				C350,39.3,345.9,33.4,340,29z M337.4,26.2c2.3,0.4,4.5,0.9,6.8,1.4c9.6,2.1,19,4.8,28.3,8.1c30.1,10.6,58.1,27.3,81.7,48.6
				c2.4,2.2,4.8,4.5,7.2,6.8c20.5,20,37.4,43.6,49.7,69.4c7.5,15.7,13.3,32.3,17.3,49.3c3.3,14.1,5.4,28.5,6.1,42.9
				c0.7,13.7,0.3,27.5-1.3,41.1c-2.1,18.1-6.2,35.9-12.3,53c-9.3,26.2-23.2,50.8-40.7,72.5c-2.6,3.2-5.2,6.3-7.9,9.3
				c-15.9,17.7-34.6,32.8-54.9,45.4c-1.1,0.6-2.1,1.3-3.2,1.9c-5.9,3.5-12,6.7-18.1,9.6c-28.8,13.7-60.3,21.7-92.2,23.4
				c-6.1,0.3-12.2,0.3-18.3,0.3c-0.8,0-1.6,0-2.3-0.1c-25-0.8-49.9-5.5-73.5-13.9c-19.4-6.9-38-16.3-55.1-27.8
				c-9.4-6.3-18.3-13.3-26.7-20.8c-12.4-11.2-23.7-23.7-33.6-37.2c-0.6-0.9-1.3-1.8-1.9-2.6c-8.2-11.5-15.4-23.7-21.4-36.4
				c-13.4-28.1-21.3-58.8-23.3-89.9c0-0.8-0.1-1.5-0.1-2.3c-1.7-31.9,3-64.1,13.7-94.1c4.6-13,10.3-25.5,17-37.5
				c8.9-15.9,19.5-30.7,31.6-44.2c6.6-7.3,13.5-14.2,21-20.6c0.7-0.6,1.3-1.1,2-1.7c16.1-13.8,34.1-25.4,53.2-34.6
				c21.9-10.5,45.4-17.6,69.4-21.1c7.6-1.1,15.2-1.9,22.8-2.3C298,21.1,317.9,22.5,337.4,26.2z M317.6,206.2
				c-0.1-3.7-0.5-6.9-1.3-9.7c0,0,0,0,0-0.1c-1.3-4.5-3.8-8.2-8.4-12c-6.5,3.4-11.6,9-14.3,15.5c3.4,3.7,5.9,7.8,7.7,12.6
				c3.7-2.8,8.6-5,15.4-6.5C316.9,206,317.3,206.1,317.6,206.2z M416.1,270.9c-0.1,0.2-0.2,0.3-0.3,0.5c2.4,1.4,4.4,3.1,6.3,4.9
				c8.1-5,14.3-10.1,18.7-15.3c-3.9-4.5-10.4-9.9-17.2-14.4c-4,6.9-8.6,12.4-13.1,15.7c2.2,2,4.2,4.2,5.7,6.7
				C416.5,269.5,416.5,270.3,416.1,270.9z M425.2,243.2c1.8,1.2,3.5,2.4,5.2,3.7c5.2-5.3,10.4-12.7,14.3-20.3
				c-6.1-3.7-13.4-7.1-19.5-9.1c-3.2,7-6.1,12.3-9.2,16.8c3.2,1.8,6.3,4,8.9,6.5c0.6,0.6,0.8,1.4,0.4,2.2
				C425.4,243,425.3,243.1,425.2,243.2z M265.3,148.8c1-3,2.4-5.9,4.1-8.7c-4.4-3.7-12.4-8.7-20.8-12.4c-3.9,7.3-6.4,14.1-7.6,20.7
				c6.9,1.6,13.1,4.4,17.8,6.9c1-2.1,2.1-4.1,3.4-6.2c0.5-0.8,1.5-1.1,2.4-0.7C264.8,148.5,265,148.6,265.3,148.8z M514,307.8
				c6-4.5,10.9-9.1,14.9-14.2c-4.9-6.5-9.8-11.5-14.6-14.8c-1.4,1.4-2.8,2.7-4.2,3.9c-2.7,3.3-5.6,6.3-8.8,8.9
				C506.1,296.4,510.5,301.9,514,307.8z M511.9,229.4c3.5-4.3,7.3-11.9,9.8-17.9c-5.6-4.1-14.3-8.2-20.4-10.1
				c-0.9,2.1-1.9,4.1-2.9,5.9c-1.7,4-3.5,7.7-5.5,11.1C498.9,221.1,505.9,225.2,511.9,229.4z M509.1,278.6
				c4.8-4.3,9.4-9.9,12.9-15.8c-5.3-5.6-11.2-10.3-18.2-14.2c-1.9,2.4-3.7,4.3-5.5,5.8c-1.8,3.2-3.9,6.1-6,8.5
				C499.2,267.6,504.8,272.8,509.1,278.6z M512.8,342.2c-3.1-5.8-7-12.3-12.1-18.5c-2.1,1.3-4.1,2.4-6.2,3.5
				c-3.5,2.5-6.8,4.5-10.1,6.3c4.2,6.7,7.5,13.6,9.7,20.1C500.6,350.7,507.5,346.5,512.8,342.2z M501.9,245c2.4-3.2,5-7.3,8-12.6
				c-6-4.2-13-8.2-18.9-10.9c-1.9,2.9-3.9,5.5-6.1,7.9c-1.5,2.5-3.2,5.2-5.2,7.7c6.8,3.7,12.8,8.3,17.4,13.4
				C498.6,249.1,500.2,247.3,501.9,245C501.9,245,501.9,245,501.9,245z M494.4,323c5.4-3,10.6-6.3,16.8-12.8
				c-3.5-5.9-7.9-11.5-12.8-16.4c-2.7,2.1-5.6,3.9-8.5,5.4c-1.8,1.6-4.5,3.6-7.5,5.4C486.4,309,490.3,314.9,494.4,323z M501.1,370.7
				v-0.5l0-0.4l-0.1-0.4l-0.1-0.4l-0.2-0.4l-0.2-0.4l-0.3-0.4l-0.3-0.3l-0.3-0.3l-0.4-0.3l-0.4-0.2l-0.4-0.2l-0.4-0.1l-0.4-0.1
				l-0.5,0h-0.4l-0.4,0l-0.4,0.1l-0.4,0.1l-0.4,0.2l-0.4,0.2l-0.4,0.3l-0.3,0.3l-0.3,0.3l-0.3,0.4l-0.2,0.4l-0.2,0.4l-0.1,0.4
				l-0.1,0.4l0,0.4v0.5l0,0.4l0.1,0.4l0.1,0.4l0.2,0.4l0.2,0.4l0.3,0.4l0.3,0.3l0.3,0.3l0.4,0.3l0.4,0.2l0.4,0.2l0.4,0.1l0.4,0.1
				l0.4,0h0.4l0.5,0l0.4-0.1l0.4-0.1l0.4-0.2l0.4-0.2l0.4-0.3l0.3-0.3l0.3-0.3l0.3-0.4l0.2-0.4l0.2-0.4l0.1-0.4l0.1-0.4L501.1,370.7
				z M496,203.8c2.8-5.6,5.5-12.7,7.3-19.8c-6-2.9-12.7-4.9-21.3-6.3c-1,2.9-2.2,5.7-3.5,8.1c-0.9,3.1-2,6.3-3.2,9.2
				C482.7,197.1,490.1,200.2,496,203.8z M506.5,281.2c-4.1-5.7-9.8-10.9-16.7-15.5c-3,3-6.3,5.2-9.7,6.7c-1.4,1.7-3.1,3.4-5,4.9
				c5.8,5.5,11,11.9,14.4,17.9C495.7,291.8,501.5,287,506.5,281.2z M488.8,218.1c2.1-3.3,4-6.9,5.7-10.9c-5.9-3.6-13.3-6.7-20.7-8.7
				c-2.1,4.3-4.4,8-6.6,10.5c-1.1,1.8-2.1,3.7-3.2,5.5c6.5,2.4,13.8,6.7,19.2,11.3C485.1,223.4,487,220.9,488.8,218.1
				C488.7,218.1,488.7,218.1,488.8,218.1z M479.5,268.6c5.6-2.7,10.8-7.9,15.1-15.2c-4.5-5.1-10.5-9.7-17.4-13.4
				c-3.3,3.7-6.9,6.8-10.4,8c-1.2,1.6-2.4,3.1-3.6,4.5C469,257,474.6,262.6,479.5,268.6z M490.9,355.2c-2.1-6.5-5.5-13.4-9.8-20.2
				c-3.3,1.5-6.6,2.6-9.7,3.4c-2.2,1.1-4.6,2.2-7.2,3.2c2.6,6.4,5.2,14.7,6.9,21.1C478.7,361.2,485.3,358.7,490.9,355.2z M491.2,325
				c-4.2-8.2-8.2-14.3-12.1-18.4c-4.1,2.3-8.5,4.1-11.9,4.9c-1.8,1-3.6,1.9-5.5,2.8c3.7,5.2,6.9,11.5,10.1,20.2
				C478,332.9,484.3,329.7,491.2,325z M482.7,158.3c1.7-6.4,2.6-13.6,2.6-21.4c-5.7-1.3-14.3-2.2-21.8-2.4c-0.3,2.7-0.6,5.2-1,7.6
				c-0.4,3.9-0.8,8.1-1.6,12.4C470.1,154.9,476.9,156.2,482.7,158.3z M485.7,386c-2.1-8.9-3.8-15.5-6.7-21.5
				c-2.8,0.8-5.7,1.5-8.7,2.1c-3.3,1.4-6.5,2.4-9.9,3.1c2.4,6.5,4.2,13.9,5.5,21.8C474.7,389.9,481,388.1,485.7,386z M486.5,297.3
				c-3.3-5.8-8.7-12.4-14.4-17.7c-4.8,3.4-10.1,5.8-14.3,6.4c-0.8,0.6-1.6,1.1-2.3,1.7c3.9,5.2,8,11.9,12,19.9
				C473.5,305.9,482,301,486.5,297.3z M476,182.6c3-6.2,5.3-14,6-20.7c-5.7-2.2-12.5-3.4-21.8-3.9c-0.8,3.5-1.9,7-3.3,10.4
				c-0.6,2.5-1.3,4.9-2,7.3C461.5,177,468.8,178.8,476,182.6z M466.2,244.4c5.2-2.1,11-9.4,14.8-15.6c-5.4-4.6-12.7-8.9-19.1-11.1
				c-4,5.9-8.6,11-14.5,13.6C454.6,235.1,462.1,240.6,466.2,244.4z M475.5,416c-0.8-6.8-2.5-15.4-4.4-21.8c-2,0.4-4,0.8-6.2,1.2
				c-3.2,1.4-7.8,2.3-12.7,2.8c1.5,7,2.4,14.8,3,22.4C463,419.6,470.2,417.6,475.5,416z M471.1,195.4c1.3-2.9,2.5-6.1,3.5-9.4
				c-7.1-3.8-14.4-5.6-20.9-6.9c-1.9,5.2-4.4,9.6-8.2,12.2c-0.6,1.5-1.1,3-1.7,4.5c9.5,2.6,16.1,5.6,21.5,9.4
				C467.3,202.9,469.3,199.5,471.1,195.4C471.1,195.5,471.1,195.5,471.1,195.4z M476.6,270.8c-4.7-5.9-10.2-11.3-15.7-15.5
				c-4.2,4.7-8.9,8.9-14.1,12.9c4.3,4.4,8.1,9.1,11.3,14C463.6,281.2,471.8,276.1,476.6,270.8z M467.6,363.7
				c-1.7-6.2-4.3-14.7-6.9-21c-3.5,0.9-7.4,1.5-11.9,1.5c-1.6,0-3.2-0.1-5-0.2c-0.9,0.4-1.7,0.7-2.6,1.1c2.6,7.1,4.4,14.2,5.8,22.1
				C455.2,367.1,461.5,366.1,467.6,363.7z M468.5,335.8c-3.2-8.6-6.4-14.9-10.1-19.9c-5.8,2.6-11.8,4.6-17.9,6.2
				c2.8,5.8,5.1,12.2,6.6,18.4C456.3,340.8,463,338.4,468.5,335.8z M462.3,392.4c-1.3-8.2-3.2-15.6-5.6-22.2c-2.9,0.4-6,0.6-9.4,0.6
				c-1,0-2,0-3,0c-1.7,0.5-3.8,1-6.2,1.4c1.3,5.4,2.5,14.5,3,22.7C448.2,395.2,457.3,394.2,462.3,392.4z M459.2,139.7
				c1-6.1,1.3-13.1,1-20.7c-7.6-0.7-16.5-0.3-22.7,0.4c0,3.2-0.2,6.3-0.7,9.1c0.2,3,0.2,6.6-0.1,10.2
				C443.8,138.2,451.2,138.6,459.2,139.7z M460.1,115.3c-0.5-10.5-1.3-16.9-1.9-20.7c-4.1,0.1-13.1,0.6-22.3,2.2
				c0.2,2.2,0.4,4.3,0.4,6.4c0.7,4.4,1.1,8.6,1.2,12.6C443.7,115,452.5,114.6,460.1,115.3z M464.1,309c-3.9-7.8-7.9-14.2-11.6-19.2
				c-6.1,4.2-12,7.6-17.7,10.3c2.8,4.5,5.1,9.5,6.8,14.7c0.3,0.8,0,1.7-0.8,2.1c-0.8,0.5-1.5,0.9-2.3,1.4c0.1,0.1,0.1,0.3,0.2,0.4
				C447.5,316.6,455.9,313.4,464.1,309z M449,226.1c5.8-3.9,10.2-10.7,14.2-17.7c-5.1-3.7-11.5-6.5-20.8-9c-2.6,6.3-5.5,12-8.7,17.4
				c5.6,2.4,10.8,5.2,14.4,7.6C448.8,224.7,449.1,225.4,449,226.1z M454.2,165.3c2.8-7.1,3.8-14.9,4.5-22c-8-1.2-15.4-1.4-22.3-0.9
				c-0.6,4.3-1.5,8.5-2.9,11.7c-0.3,2.3-0.7,4.5-1.2,6.7C438.2,160.8,446.4,162,454.2,165.3z M463.3,246.7
				c-4.1-3.7-11.5-9-18.4-12.7c-3.4,5.7-7.4,11-11.4,15.1c4.6,3.6,8.6,7.4,11.1,10.6c0.5,0.7,0.5,1.6,0,2.3
				c-0.6,0.8-1.2,1.5-1.9,2.2c0.5,0.4,0.9,0.9,1.4,1.3C451.5,260.1,457.8,253.9,463.3,246.7z M450.8,176.4c0.8-2.4,1.5-5,2.2-7.5
				c-7.8-3.4-16.1-4.5-21.6-4.3c-2,7-4.9,13.1-8.4,17.5c6.9,1.4,13.6,3.4,20.9,6.2c3.1-2.4,5.1-6.8,7-11.7
				C450.8,176.5,450.8,176.4,450.8,176.4z M451.5,421.1c-0.7-7.8-1.5-15.7-3.1-22.6c-1.5,0.1-3,0.1-4.4,0.1c-1.7,0-3.3-0.1-4.7-0.2
				c-3.2,0.6-6.5,0.9-9.7,1c0.8,7.2,0.5,15.6,0.1,21.9C434.3,422.5,441.3,422.4,451.5,421.1z M454.6,283.8c-4-6-8.9-11.6-14.5-16.8
				c-4.1,4.1-9.3,8.1-15.6,12.1c2.9,3.6,5.1,7.4,6.8,10.9c0.4,0.7,0.2,1.5-0.3,2.1c-0.4,0.4-0.8,0.8-1.2,1.2c1,1.2,2,2.5,2.9,3.8
				C439.7,293.7,446.9,289.4,454.6,283.8z M443.1,340.2c-1.8-6.9-4.5-13.9-7.9-20.1c-6,3.1-12.4,5.5-18.6,6.9
				c1.7,4.3,2.8,9.1,3.4,14.4c0.1,0.9-0.5,1.7-1.3,2c-0.5,0.1-0.9,0.3-1.4,0.4c0.2,0.9,0.5,1.7,0.7,2.6
				C425.5,345.9,435.5,343.8,443.1,340.2z M443.3,367.2c-1.3-7.4-3.1-14.1-5.6-20.9c-6.6,2.1-13.5,3.3-18.9,3.8
				c1.1,5.5,1.7,11.4,1.7,17.4c0,0.3-0.1,0.5-0.2,0.8C429.2,370.4,438.3,368.6,443.3,367.2z M430.3,215.3c4.3-7.1,8-14.8,11.4-24
				c-7.3-2.8-14-4.7-21.1-6.1c-1.9,6.3-4.1,13.1-6.6,19.1c4.4,1.2,8.6,2.9,13,5c0.9,0.4,1.3,1.5,0.9,2.4c-0.3,0.8-0.7,1.5-1,2.3
				C428,214.5,429.1,214.9,430.3,215.3z M437.4,395.1c-0.5-8.3-1.8-17.4-3-22.4c-1.7,0.2-3.5,0.3-5.4,0.3c-4.6,0-9.6-0.7-14.4-2.6
				c1.1,6.7,1.6,13.6,1,23.2c2.7,1.3,7,2.2,12.1,2.2c0,0,0.1,0,0.1,0C430.7,395.8,434,395.6,437.4,395.1z M435.1,447.9
				c1-7.4,1.1-14.5,0.5-22.1c-3.2-0.1-5.8-0.5-7.9-1.2c-2.3,0.3-4.6,0.4-6.7,0.4c-1.5,0-2.9-0.1-4.3-0.2c-0.2,7-1.4,15.8-2.7,22.2
				C420.6,448.3,427.5,448.6,435.1,447.9z M437.6,314.6c-2.4-6.9-6-13.4-10.5-18.9c-5.7,4.8-12.1,7.8-18.1,8.6
				c1.6,3.1,2.8,6.1,3.9,9.2c0.2,0.4,0.3,0.9,0.5,1.3c0.3,0.9,0,1.9-0.8,2.3c-0.3,0.2-0.7,0.4-1,0.5c1.3,1.9,2.5,3.8,3.5,5.9
				C422.7,322,430.6,318.9,437.6,314.6z M433.5,126.5c0.7-6.2,0.5-13.3-0.6-21.3c-8.9,0.5-16.3,1.7-22.3,3.5
				c0.3,3.6,0.4,7.5,0.3,11.7c0.2,2,0.3,4.5,0.3,7.3C418.1,126.6,426.4,126.2,433.5,126.5z M430.6,151.5c2-5.3,3.1-13.9,2.8-21.3
				c-7.8-0.4-16.4,0.3-22.2,1.2c-0.2,5.8-1,11.9-2.8,16.1c-0.2,1.2-0.4,2.4-0.6,3.7C414.8,150.3,423.6,150.4,430.6,151.5z
				 M432.5,101.6c-0.1-2-0.3-4-0.5-6c0,0,0,0,0,0c-0.6-4.7-1.7-9.5-3.3-14.6c-7.3,0.8-15.8,3-22.2,5.5c0.7,2.9,1.2,5.6,1.4,8.1
				c1,3.2,1.8,6.6,2.3,10.4C416.3,103.2,423.7,102.1,432.5,101.6z M421.6,177.6c3.8-5.6,6.7-13.6,8.1-22.5c-7-1.1-15.9-1.2-22.5-0.2
				c-1.2,6.9-2.4,13.6-3.9,19c6.2,0.4,12.1,1.8,17.8,3.5C421.3,177.4,421.4,177.5,421.6,177.6z M426.1,291.7
				c0.5-0.4,0.9-0.8,1.3-1.3c-2.9-5.6-7.1-12.2-13.9-16c-4.7,6-10.4,10.4-16,12.4c1,1.3,1.8,2.5,2.6,3.8c0.5,0.7,0.4,1.6-0.2,2.3
				c-0.1,0.1-0.2,0.2-0.3,0.3c3.1,2.5,5.4,5.1,7.2,7.8c3.1-0.1,6.4-1,9.7-2.6C419.8,296.7,423.2,294.6,426.1,291.7
				C426.1,291.7,426.1,291.7,426.1,291.7z M426.1,421.1c0.4-6.3,0.7-14.7-0.2-21.7c-5.2-0.3-9.8-1.3-12.9-3
				c-0.4-0.1-0.8-0.1-1.2-0.1c-1.5-0.2-3.1-0.3-4.8-0.5c-0.2,8.6-1,16.1-2.3,22.1c3.4,1.5,6.7,2.5,10.2,3c0.1,0,0.1,0,0.2,0
				C418.6,421.4,422.2,421.5,426.1,421.1z M412.8,232.6c3.6-5.2,7-11.6,11-20.6c-7-3.3-14-5.3-21.6-6.1c-0.8,6.3-2.8,12.7-6,19.2
				c1.8,0.7,3.5,1.6,5.1,2.6c0.6,0.4,0.9,1.1,0.8,1.8C405.6,230,409.3,231,412.8,232.6z M414,472.3c1.6-5.8,2.7-12.7,3.4-21
				c-1.9-0.3-3.8-0.6-5.7-1c-0.1,0-0.1,0-0.2,0c-4.3,0-8.7-0.6-12.9-1.6c-0.6,6-2.2,13.4-4.4,20.6
				C401.4,471.1,407.8,472.1,414,472.3z M416.8,365.9c-0.1-7.6-1.2-14.7-3.1-21.3c-4.5,0.9-9.4,1.3-14.1,1.3c-2.2,0-4.3-0.1-6.4-0.3
				c0.7,5.4,0.7,10.3,0.6,12.9c0,0.8-0.6,1.5-1.4,1.7c-0.4,0.1-0.8,0.2-1.2,0.2c0.3,1.2,0.5,2.5,0.6,3.9
				C398.6,366.5,408.7,367,416.8,365.9z M407.4,259.7c4.8-3,9.9-9.4,14.1-17.3c-5.8-5.1-13.4-8.6-20.4-9.3
				c-2.8,9.1-6.4,15.4-11.1,19.5c0.6,0.6,1.2,1.2,1.7,1.9C396.8,254.2,402.4,256.2,407.4,259.7z M410.4,203.5
				c3-7.1,5.8-15.9,7.9-23.2c-6.9-2.2-14.5-3.1-22.1-2.8c-0.3,6.4-1.1,13.4-2.5,19.9c2.5,0.4,5.1,1,7.7,1.8c0.8,0.2,1.3,1,1.3,1.8
				c0,0.4,0,0.8-0.1,1.2C405.2,202.5,407.8,202.9,410.4,203.5z M416.2,340.3c-1.1-8.4-3.7-15.1-8-20.9c-6.9,3.4-12.7,5.3-18.4,6.1
				c0.4,1.6,0.6,3.2,0.8,4.9c0.1,0.7-0.3,1.4-0.9,1.8c0,0-0.1,0-0.1,0.1c1.4,3.1,2.3,6.4,2.9,9.6C400,342.7,409,342.1,416.2,340.3z
				 M410.3,446.6c1.3-6.4,2.5-15.4,2.7-22.3c-4.2-0.8-8.2-2.2-12.2-4.2c-1,0.1-2.1,0.2-3.1,0.2c-1.1,0-2.2-0.1-3.3-0.2
				c-0.8,6.4-2.6,15.2-4.8,21.4c2.2,1.2,4.9,2.3,7.7,3.1c0,0,0.1,0,0.1,0C401.4,445.8,405.9,446.5,410.3,446.6z M411.9,392.6
				c0.6-9.3,0-15.9-1.1-22.5c-0.9,0-1.7,0.1-2.6,0.1c-5.7,0-11.5-0.7-16.2-1.8c0.1,5.1-0.5,10.7-1.8,16.5c-0.2,0.8-0.9,1.4-1.7,1.4
				c-1,0-1.9,0.1-2.9,0.1c-0.3,0-0.5,0-0.8,0c-0.1,0.8-0.1,1.6-0.2,2.4C392.2,390.5,403,391.7,411.9,392.6z M405.4,145
				c1.9-5.5,2.5-15.4,2-22.7c-8.4,0.2-15.6,1.3-21.9,3.2c0.6,5.8,1.1,12.4,1.1,20.1C392.7,144.7,398.8,144.5,405.4,145z
				 M407.3,118.6c0.1-8.6-0.7-15.7-2.4-21.7c-6.9,0.8-14.1,2.9-21.5,6c0.8,4.5,1.2,9.2,1.1,13.8c0.1,0.7,0.2,1.3,0.2,2
				c0.1,1,0.2,2,0.3,3C391.6,119.9,398.9,118.9,407.3,118.6z M412.3,269.9c-1.7-2.4-3.7-4.5-6-6.3c0,0-0.1-0.1-0.1-0.1
				c-4.4-3.4-9.6-5.5-14.1-5.4c-3.4,7.7-8.1,12-12.5,14.2c6.5,2.3,11.5,6.7,15.4,11.3C401.1,282,407.5,276.8,412.3,269.9z
				 M409.4,314.7c-2.5-6.7-4.9-13.1-12.3-19c-5.9,5.6-12.5,9.3-18.7,10.6c5.2,5,8.6,9.9,10.5,15.6
				C395,321.1,401.4,318.9,409.4,314.7z M401.3,416.3c1.2-5.7,1.9-12.8,2.1-20.9c-6.7-0.8-13.7-1.7-19.2-3
				c-0.9,6.3-2.3,13.4-3.8,18.2c0,0.1-0.1,0.2-0.1,0.3C387.5,415.5,394.3,417.2,401.3,416.3z M399.5,173.8c1.9-6.8,3.6-16.3,5-25.1
				c-8.2-0.6-15.6,0-23.4,1.8c0.9,5.9,1.5,12.5,1.8,18.9c3.9-0.1,7.9,0.1,11.9,0.8c0.9,0.1,1.5,0.9,1.5,1.8c0,0.6,0,1.3,0,2
				C397.3,173.8,398.4,173.8,399.5,173.8z M404.1,93.4c-0.8-6.1-2.8-13-6.2-20.8c-7,2.2-14,5.3-20.4,9c1.1,3.2,1.9,6.5,2.5,9.8v0
				c1,2.4,1.9,5,2.5,7.9C389.9,96.2,397.1,94.2,404.1,93.4z M392.7,223.9c3.7-7.4,5.7-14.5,6.2-21.6c-8.1-2.3-16.5-2.5-22.5-0.8
				c0.9,8.5-0.7,16.4-2.3,21.9C379.9,221.8,386.5,222,392.7,223.9z M387.2,250.1c4.7-3.8,8.2-10.2,11-20c-7.9-4.5-17.5-5.4-25.3-2.5
				c-0.4,4.2-1.7,9.8-4.3,14.9C376.3,243.9,382.4,246.4,387.2,250.1z M390.1,469.5c2.4-7.6,4.2-15.7,4.8-21.8c-3-1-5.8-2.2-8.1-3.6
				c-3.5-0.2-6.8-0.7-9.9-1.7c-2,8-4.2,14.8-6.8,20.9C376,466.3,382.6,468.4,390.1,469.5z M396.6,69.2c-2-5.5-5-12.5-8.9-18.5
				c-5.5,1.2-11.9,4.3-19.6,9.3c1,2.1,2,4.4,2.8,6.7c2.1,3.8,3.9,7.5,5.4,11.4C382.7,74.5,389.6,71.4,396.6,69.2z M390,196.9
				c1.6-7.7,2.6-16.4,2.5-23.5c-7.6-1.1-15.3-0.5-22.9,1.7c1.9,6,2.6,13,2.1,20.9c0.9,0,1.7,0.1,2.5,0.1c0.8,0.1,1.5,0.7,1.7,1.5
				c0,0,0,0,0,0.1C379.9,196.7,384.8,196.4,390,196.9z M390.2,357c0.2-8.6-1.1-16.9-3.7-22.9c-4.9,2.4-10,3.6-15.1,3.6
				c-2.6,0-5.2-0.3-7.7-1c-0.1,1.3-0.3,2.6-0.5,4c2.4,4.2,3.7,9.4,3.7,15.5c5.4,2,13.5,2.4,21.2,1.2c0.1,0,0.2-0.1,0.3-0.1
				c0.3-0.1,0.5-0.1,0.8-0.1C389.4,357.1,389.8,357.1,390.2,357z M386.1,440.4c1.9-5.4,3.8-13.9,4.6-20.9
				c-5.6-1.3-11.1-4.2-16.9-8.7c0,0,0,0,0,0c-1.7,6.8-3.5,12.7-6.8,21.5c2.9,2.7,6,4.7,9.4,6.1c0,0,0,0,0.1,0
				C379.4,439.5,382.6,440.2,386.1,440.4z M396.3,291.4c-5.1-7.4-12.2-15.5-23.3-16.8c-0.3,0.1-0.6,0.1-0.8,0.1
				c0.6,1.4,1.1,2.9,1.4,4.4c0.2,0.7-0.1,1.4-0.6,1.8c-2.4,2.1-4.9,3.7-7.4,4.9c4.2,4.9,7,10.8,9.8,17.1
				C382,302.4,389.8,298.1,396.3,291.4z M387,382.6c1.7-8,1.8-15.8,0.5-21.5c-2.6,0.4-5.3,0.6-7.9,0.6c-4.7,0-9.2-0.6-12.9-1.7
				c-0.2,2.5-0.6,5.1-1.1,7.8c-0.2,0.8-0.8,1.4-1.6,1.5c-0.5,0.1-1,0.1-1.6,0.1c0.3,2.6,0.4,5.1,0.3,7.5
				C369.3,380.8,377.8,382.8,387,382.6z M388.8,256.7c-0.9-1-1.8-1.9-2.8-2.8l0,0c-4.7-4.1-10.9-6.6-19.3-7.9
				c-1.8,2.8-4.1,5.3-6.9,7.1c-0.7,1.8-1.6,3.6-2.6,5.2c6.1,3.6,10.5,7.8,13.3,13C376.3,270.8,383.9,267.8,388.8,256.7z
				 M386.9,329.7c-1-7.7-4.1-13.8-10.2-19.8c0,0-0.1,0-0.1,0.1c-5.3,3.4-10.8,5.2-16.7,5.4c2.6,5.7,3.9,11.5,3.9,17.6
				C371.2,335.1,379.5,333.9,386.9,329.7z M382.9,146.2c-0.1-11-1.1-19.9-1.8-27.1v-0.1c-7.9,1.7-14.7,3.7-21.9,6.4
				c1.7,6.7,3,12.9,4.1,19.2c5.1-1.4,9.9-2.2,14.7-2.5c0.9-0.1,1.7,0.6,1.9,1.5c0.2,1,0.4,2.1,0.6,3.1
				C381.3,146.6,382.1,146.4,382.9,146.2z M377.5,407.9c1.8-6.9,3.4-15.9,3.8-21.8c-7-0.5-13.4-2.3-18.8-5.3
				c-0.6,4.4-1.9,8.5-3.9,12.6c-0.3,0.6-1,1-1.6,1c-0.1,0-0.1,0-0.2,0c-0.7-0.1-1.3-0.2-1.9-0.3c-0.3,1.5-0.6,2.8-0.9,4.2
				C359.9,402.3,367.1,405.2,377.5,407.9z M380.8,115.4c0-7.5-1.4-15.2-3.7-21.3c-7.8,2.1-14.4,4.7-20.4,8
				c1.9,6.4,2.2,12.2,0.7,17.1c0.3,0.9,0.5,1.8,0.7,2.7C365.6,119.1,372.7,117.1,380.8,115.4z M379.1,169.5
				c-0.4-8.2-1.3-16.6-2.6-23.6c-6.7,0.6-13.6,2.3-21.5,5.4c2.5,6.8,4.3,13.3,5.4,20c2-0.3,4.1-0.4,6.3-0.4c0.6,0,1.2,0.3,1.5,0.8
				C371.9,170.6,375.5,169.9,379.1,169.5z M376.1,90.6c-1.5-7.1-4-13.9-7.7-20.7c-7.4,3-13.8,6.8-19.6,11.3
				c1.7,3.7,3.1,7.6,4.1,11.5c1,2,1.9,4,2.6,5.9C361.6,95.3,368.3,92.6,376.1,90.6z M373.3,307.6c-0.1-0.2-0.1-0.3-0.2-0.5
				c-3.3-7.8-6.3-14.5-11.1-19.7c-3.8,1.3-7.5,1.7-11,1.7c-1.7,0-3.3-0.1-4.9-0.3c1.9,5.7,3,12.5,3.5,21.8
				C355.6,312.1,364,313,373.3,307.6z M370,224c1.8-5.5,3.8-14.6,2.4-24.2c-6.8-0.4-17.6,0.1-24.5,6.3c-0.3,1.6-0.8,3.2-1.4,4.7
				c1.1,3.1,1.6,6.3,1.6,9.6C355.8,220.1,362.7,221.2,370,224z M366.8,461.8c2.5-6.1,4.7-12.8,6.7-20.8c-3.5-1.6-6.8-3.9-9.7-6.8
				c-2.6-1-5.1-1.9-7.4-2.9c-2.6,8.1-5.6,15-8.9,20.1C352.4,455.6,358.8,458.9,366.8,461.8z M365,489.5c2.6-4.9,6-13.6,8.1-20.8
				c-2.1-0.9-4.1-1.8-6-2.9c-4.5-1.5-8.5-3.2-12.1-5.1c-2.3,7.8-5.2,14.9-8.6,20.6C351.3,484.6,357.9,487.5,365,489.5z M368,196.1
				c0.6-8.3-0.2-15.5-2.5-21.4c-9.3,0.2-17.1,3.3-21.4,8.3c3.1,5.3,4.6,11.8,4.4,18.2C354.5,197.3,361.9,196.2,368,196.1z
				 M363.7,430.3c3.1-8.4,4.8-14,6.5-20.6c-7-2.2-12.7-4.7-17.6-7.6c-1.9,5.4-4.9,9.9-8.9,14.3c-0.4,0.4-0.8,0.6-1.3,0.6
				c-0.1,0-0.3,0-0.5-0.1c-0.8-0.2-1.6-0.5-2.5-0.8c-0.1,0.3-0.3,0.6-0.4,0.9C345.5,422.2,353.2,426.4,363.7,430.3z M358.6,249.4
				c6.7-5,10-15.3,10.6-21.8c-7.1-2.8-13.8-3.8-21.3-3.5c-0.6,6.1-2.7,12-5.5,16.5C348.9,242.1,354.6,245.2,358.6,249.4z M369.7,279
				c-2.1-7.5-6.9-13.2-14.8-17.8c-3.5,4-8.3,7.2-14.6,9.7c3.2,4.1,5.4,8.6,7.7,13.3c0.2,0.4,0.2,0.7,0.2,1.1
				C357,285.8,363.7,283.9,369.7,279z M366.9,66.5c-2.9-7.4-6.7-13.6-11.4-18.7c-5.1,2.8-12.4,8.1-18.1,13.7c1.3,2.2,2.6,4.5,3.9,7
				c2.1,2.6,4.1,5.8,5.9,9.2C353,73.3,359.5,69.6,366.9,66.5z M362.3,365.7c1.5-8.4,1.1-15.6-1.2-21c-1.1,0.2-2.8,0.3-5,0.3
				c-3.9,0-9.1-0.5-14-1.9c0.4,6.2-0.1,12.5-1.4,18.1C346.9,364.9,353.8,366.3,362.3,365.7z M359.3,341.2c1.9-9.3,0.7-17.6-3.5-25.9
				c-1.9-0.1-3.9-0.5-6-0.9c0,0.2,0,0.5,0,0.7c0,1-0.7,1.8-1.7,1.9c-1.9,0.2-3.8,0.3-5.7,0.3c-0.8,0-1.6,0-2.4,0
				c0.2,5.8,0.1,12.5-2.5,19.9C344.1,341.1,354.5,341.6,359.3,341.2z M355.7,390.7c3-6.7,4-13.3,3.1-21.2c-0.1,0-0.3,0-0.4,0
				c-7.1,0-13.2-1.5-18.8-4.7c-0.5,1.6-1.1,3.1-1.8,4.5c-0.3,0.6-0.8,1-1.5,1c-0.4,0-0.8,0.1-1.3,0.1c0.3,3.7,0.1,7.1-0.5,10.2
				C337.3,385.5,345,389.2,355.7,390.7z M353.8,147.9c2-0.8,4-1.5,5.9-2.1c-1.3-7.8-3-15.6-5.4-24.2c-7.9,2.7-14.4,5.8-20.9,10
				c3.1,5.2,6,11.4,8.3,17.5c3.1-1.2,6.3-2.1,9.8-2.8c0.9-0.2,1.7,0.3,2.1,1.1C353.6,147.5,353.7,147.7,353.8,147.9z M356.8,172
				c-1.2-7.3-3.2-14.4-6.1-21.8c-7.7,1.7-14.2,4.8-19.9,9.4c4.5,5.8,7.5,12.8,9.1,21.6c0.3-0.1,0.6-0.1,1-0.2
				C344.4,176.7,350,173.5,356.8,172z M354.1,117.8c1.6-6,0.3-13.6-3.9-22.2c-7.2,2.2-13.7,5.7-20.1,10.9c3,5.5,5.4,11.5,7.4,18.3
				C342.6,122.1,347.9,119.8,354.1,117.8z M337.7,267.9c9.5-3.5,15.5-8.6,18.4-15.7c-4.2-4.6-12.4-8.9-22-8.9
				c-1.6,6.7-3.6,12.5-7.2,17.1C331.5,262.6,335,265.1,337.7,267.9z M344.3,449.6c3.1-5,6.1-11.8,8.6-19.7c-6.1-2.8-11.2-6-15.7-9.5
				c-2.6,4.9-6,10.4-11.3,15.8C329,440.9,335.3,445.5,344.3,449.6z M343.1,479.7c3.4-5.7,6.3-12.9,8.6-20.8
				c-2.8-1.7-5.4-3.5-7.6-5.4c-3-1.3-5.7-2.6-8.1-4c-3.7,8.9-8.1,15.3-11.5,19.6C329,473.7,335.1,477.1,343.1,479.7z M341.8,413
				c4.9-5.5,7.8-11.6,9.2-19.4c-8-1.6-14.1-4.5-17.6-8.4c-1.5,3.8-3.8,7.1-7,9.7c-0.3,0.3-0.8,0.4-1.2,0.4c-0.1,0-0.2,0-0.3,0
				c-0.5-0.1-1.1-0.2-1.6-0.3c-0.3,1.2-0.7,2.3-1.1,3.4C326.2,405.4,334.7,410.9,341.8,413z M348.9,92.2c-2.2-7.5-5.6-14.8-9.6-20.1
				c-7.8,5.1-13.7,9.5-17.6,13.2c2.6,4.8,4.2,10,4.4,14.7c0.8,1.1,1.5,2.2,2.1,3.4C334.8,98,341.5,94.4,348.9,92.2z M346.1,313.4
				c-0.4-10.8-1.6-18.2-3.8-24.3c-6.8,3.2-13.9,5.1-20.1,5.4c0.2,2.1,0.3,4.2,0.3,6.2c0,0.5-0.2,1-0.5,1.4c-0.3,0.3-0.8,0.5-1.3,0.5
				c0,0,0,0,0,0c-0.2,0-0.4,0-0.6,0c0.1,1.9,0.1,3.8-0.1,5.6C326.9,312.1,336.4,314.1,346.1,313.4z M343.3,208.9
				c2.7-7.8,1.8-17.2-2.3-24.2c-8.7,1.5-17.4,6.3-21,11.6c1.1,4.3,1.4,9.1,1.3,14.7C326.8,209,334.2,208.2,343.3,208.9z
				 M338.6,239.9c4.8-6.8,7.7-17.9,4.7-27.3c-9-0.7-16,0-21,2.1c2.2,6.2,2.8,13,1.7,18.9c3.5,0.2,7,0.7,10.1,1.3
				c0.5,0.1,0.9,0.4,1.2,0.8c0.3,0.4,0.4,0.9,0.3,1.4c-0.2,0.9-0.4,1.7-0.5,2.5C336.1,239.7,337.4,239.8,338.6,239.9z M343.9,284.2
				c-2.2-4.6-4.5-8.9-7.8-12.6c-0.2-0.1-0.4-0.3-0.5-0.6c-2.8-3-6.4-5.6-11.3-7.7c-2.9,2.8-6.5,5-11.3,6.6
				c5.4,5.4,7.8,13.1,8.8,20.9C328.5,290.5,336.6,288.1,343.9,284.2z M335,366.8c2.9-6.9,4.2-16.3,3.3-25.2
				c-0.7-0.3-1.4-0.7-2.1-1.1c-0.4,1-0.9,1.9-1.4,2.9c-0.3,0.6-1,1-1.6,1c-0.1,0-0.1,0-0.2,0c-4.9-0.5-9.3-1.8-13.2-3.8
				c-0.8,5.8-2.9,12.2-5.7,17.5c3.8,4.7,12.1,8.6,19.1,8.6c0,0,0,0,0,0C333.9,366.8,334.4,366.8,335,366.8z M332.1,340.7
				c4.1-8.3,4.5-15.5,4.3-23.8c-6.2-0.7-12-2.3-16.8-4.8c-1,5.9-3.5,11.3-7.4,16.6C315.3,333.7,321.2,339.3,332.1,340.7z
				 M335.1,416.6c0.3-0.6,0.6-1.2,0.9-1.8c-5.8-2.7-11.8-7-15.6-12.4c-2.6,4.9-6.4,9.3-11.4,13.3c-0.3,0.3-0.7,0.4-1.1,0.4
				c-0.3,0-0.7-0.1-1-0.3c-0.4-0.3-0.9-0.6-1.4-0.9c0,0.1-0.1,0.2-0.1,0.2c3.8,7,11.7,14.4,18.1,18.4
				C329,427.7,332.5,421.8,335.1,416.6C335.1,416.6,335.1,416.6,335.1,416.6z M337.3,68.9c-1.2-2.4-2.5-4.6-3.8-6.6c0,0,0,0,0,0
				c-2.5-4-5.1-7.4-8-10.4c-5.6,3.5-11.1,8.7-16.2,15.3c2,2.6,3.8,5.3,5.4,8.3c1.9,1.9,3.6,4.1,5.2,6.5
				C323.8,78.3,329.7,73.9,337.3,68.9z M338.3,150.5c-2.7-7.5-6.5-15-10.3-20.7c-6.9,3.3-12.5,7.6-17.4,13.2
				c4.8,5.1,8.9,10.6,12.4,16.6c1.4-0.7,2.8-1.4,4.3-1.9C330.7,154.8,334.3,152.4,338.3,150.5z M336.3,182
				c-1.6-8.4-4.3-15.1-8.7-20.5c-9.6,3.9-16.9,12.2-17.7,19.9c4.3,3.5,6.9,7,8.6,10.8C322.9,187.4,329.8,183.9,336.3,182z
				 M331.5,128.4c1-0.6,1.9-1.2,2.8-1.7c-2.7-9.2-6.1-16.8-10.6-23.7c-7.2,4.1-12.8,8.7-17.2,13.8c4.5,6.2,8,11.2,10.5,15.3
				c3.3-2.4,6.8-4.5,10.8-6.2c0.8-0.3,1.8-0.1,2.3,0.6C330.6,127.1,331,127.7,331.5,128.4z M324.7,391.5c5.4-4.9,7.6-11.9,6.8-21.2
				c-6.8-0.7-14.7-4-19.3-8.8c-0.2,0.3-0.4,0.6-0.6,0.9c-0.1,4.9-1.5,10.6-4.3,15.6C309.4,384.1,316.9,390,324.7,391.5z
				 M330.9,241.1c0.2-0.9,0.4-1.9,0.6-2.8c-10.5-1.9-18.1-1-24.2,2.6c2.2,8.2,0.4,16.5-3.4,23.4c2.2,0.8,4.1,1.7,5.8,2.9
				c14.2-3.9,18.5-12.4,21.2-25.9C330.8,241.2,330.8,241.1,330.9,241.1z M321.5,467c3.3-4.3,7.7-10.6,11.3-19.5
				c-4.9-3.2-8.4-6.7-10.4-10.4c-1.2-0.7-2.4-1.5-3.6-2.4c-3.2,5-7.3,10.8-13.4,17.4C309.6,459.2,314.7,463.9,321.5,467z
				 M316.4,495.2c3.1-4,7.3-10.2,11-18.9c-2.4-1.6-4.6-3.5-6.4-5.5c-3.8-1.6-7-3.6-9.9-6.1c-4.7,7.7-9.4,13.2-13.1,17.4
				C302.8,488.2,308.8,492.6,316.4,495.2z M320.2,233.6c1.6-7.3,0-16.6-4.1-23.6c-12,2.9-17.1,8.3-20.1,15.8c0.1,0,0.2-0.1,0.3-0.1
				c0.6-0.2,1.4-0.1,1.9,0.4c3.7,3.5,6.3,7.3,7.9,11.2C310.6,234.8,315.5,233.8,320.2,233.6z M322.4,99.5
				c-0.5-6.8-4.2-14.7-9.5-20.5c-5.6,3.9-12.6,10-16.6,15.5c3.8,5.4,6.7,11.6,8.8,18.4C309.6,107.9,315.3,103.5,322.4,99.5z
				 M323.2,49c-3.2-4.6-8.5-10.4-15.2-14.7c-5.4,3-10.8,8.6-15.3,16c2,1.9,3.7,3.8,5.1,5.6c3.3,2.4,6.3,5.1,9,8.3
				C312,57.8,317.5,52.7,323.2,49z M308.9,326.9c5.7-7.4,8-15.1,7.5-24.4c-6.3-0.3-12.9-0.9-18.4-3.9c-0.6,4.7-2.6,9-5.7,12.6
				C295.4,317.4,300.3,322.1,308.9,326.9z M307.7,411.9c6.3-5.2,10.1-10.9,12-18c-6.4-2.4-12.1-7.1-15-12.4
				c-1.5,1.9-3.2,3.5-5.2,4.8c-0.3,0.2-0.7,0.3-1,0.3c-0.1,0-0.2,0-0.4,0c-0.7-0.1-1.5-0.3-2.2-0.6c-0.8,3-2.1,5.8-3.9,8.4
				c3.2,6.6,8.6,12.2,13.4,15.8c0.2,0,0.3,0.1,0.5,0.2c0.3,0.2,0.4,0.4,0.6,0.6C307,411.4,307.4,411.7,307.7,411.9z M318.8,298.9
				c-0.5-13.5-3.3-27.2-17-31.4c-0.5,0.7-1.1,1.4-1.7,2.1c-0.1,0.1-0.2,0.2-0.4,0.3c0,3.7-1.5,7.3-4.1,9.8c-1.4,1.4-3.1,2.5-5,3.2
				c1.3,4.9,3.5,8.2,6.3,10.6c0.4,0.1,0.7,0.4,0.9,0.7C303,297.8,310.2,298.6,318.8,298.9z M319.8,161.5
				c-3.9-6.5-8.4-12.4-13.8-17.9c-7.5,5.6-11.9,10.9-15,17.9c5.3,2.3,12.4,8.7,16.3,14.9C309.3,170.8,313.9,165.4,319.8,161.5z
				 M309,359.6c3.9-5.9,6.7-14.1,7.3-21.1c-2.8-2-5.2-4.5-7.1-7.4c-0.3,0-0.5-0.1-0.7-0.2c-1.7-0.9-3.3-1.8-4.7-2.7
				c-2.3,5.9-6.5,11.7-11.6,16.1c0,1.2,0,2.4-0.1,3.5C293.5,351,298.7,355.8,309,359.6z M301.6,450.7c6.6-7,10.9-13.1,14.2-18.3
				c-4.8-3.9-9.7-9-12.8-14.1c-3.4,4.3-7.7,8.5-13.3,13.4c-0.3,0.3-0.8,0.4-1.2,0.4c-0.4,0-0.8-0.1-1.2-0.4c-1-0.8-1.9-1.6-2.8-2.5
				C288.5,437.7,296.9,446.4,301.6,450.7z M308,140.4c1.9-2.2,4-4.2,6.1-6.1c-3.9-6.3-9.3-13.8-13.5-19.4
				c-6.3,4.1-12.1,10.2-15.6,16.1c4.9,3.7,9.5,8.3,13.8,13.7c1.9-1.7,4-3.4,6.3-5.1c0.7-0.5,1.7-0.5,2.4,0.2
				C307.6,140.1,307.8,140.2,308,140.4z M303.6,376.9c2.6-4.3,4-9.4,4.2-13.8c-7.4-2.7-13.2-6.3-16.6-10c-1.4,5.9-4.4,10.8-9.1,15
				c1.3,5.8,7.9,12.9,16,14.8C300.4,381.3,302.2,379.2,303.6,376.9z M310.7,76c-3.8-6.6-8.5-12.1-14.1-16.4
				c-5.4,4.5-10.2,10.3-14.4,17.2c3.6,3.5,6.4,7,8.3,10.5c1.2,1.3,2.4,2.6,3.5,4C298.4,85.7,305.3,79.8,310.7,76z M308.3,462.1
				c-2-2.1-3.9-4.5-5.6-7.3c-0.3,0.2-0.7,0.3-1,0.3c-0.4,0-0.9-0.2-1.2-0.5c-1.4-1.3-3.5-3.2-5.7-5.6c-4,5.2-9,10.6-14.6,15.7
				c3.4,5.8,8.2,10.5,15,14.8C298.9,475.5,303.6,469.9,308.3,462.1z M300.1,111c0.1-0.1,0.2-0.1,0.4-0.2
				c-2.7-7.7-6.7-14.4-11.8-19.9c-5.6,3.9-10.9,9.9-14.8,16.9c4.4,4.3,9.1,9.1,13,14.5C290.7,117.9,295.4,113.8,300.1,111z
				 M298.9,265.1c6.9-9.7,8.8-24.2-2.5-35.6c-11.5,4.7-16.4,16-16.3,23.1c1,1,2,2.2,2.9,3.4c0.9-0.2,1.8-0.3,2.7-0.3
				c3.7,0,7.3,1.5,9.9,4.1C297.1,261.4,298.2,263.2,298.9,265.1z M305.8,181.4c-2.6-6.3-11.4-14.7-16.6-16.7
				c-4.5,4.6-9.4,13.1-10.1,22.1c1.2,1.3,2.4,2.8,3.4,4.3c3.2,1.9,5.9,4,8.3,6.1C293.7,190.6,299.1,185,305.8,181.4z M288.6,428
				c6.3-5.5,10.7-10.3,14-15.3c-4.6-3.6-9.6-8.8-12.9-14.9c-2.4,2.8-5.5,5.3-9.2,7.9c-0.3,0.2-0.7,0.3-1,0.3c-0.3,0-0.6-0.1-0.9-0.2
				c-1-0.5-2-1.2-2.9-1.8c-0.8,1-1.6,1.9-2.4,2.8C276.4,414.7,281.4,421.7,288.6,428z M287.5,343.2c5.9-4.2,10.9-10.8,13.1-17.2
				c-5.1-3.6-8.6-7.5-11.1-12.2c-2.6,2.2-5.8,4-9.3,5.5c-0.2,0.1-0.4,0.1-0.7,0.1c-0.3,0-0.7-0.1-1-0.3c-0.6-0.4-1.2-0.8-1.8-1.2
				C275.9,329.5,279.6,338.3,287.5,343.2z M296.1,269.8c0-2.7-1.1-5.4-3-7.3c-1.9-1.9-4.6-3-7.3-3s-5.4,1.1-7.3,3
				c-1.9,1.9-3,4.6-3,7.3c0,2.7,1.1,5.4,3,7.3c1.9,1.9,4.6,3,7.3,3s5.4-1.1,7.3-3C294.9,275.2,296.1,272.5,296.1,269.8z M298,487.9
				c-1.3-1.4-2.6-2.8-3.8-4.4c-4-2.4-7.4-5-10.3-7.8c-4.4,4.7-10,10.2-14.9,14.5c4.3,6.1,9,10.9,15.1,15.2
				C289.8,500.2,294.6,494,298,487.9z M291.3,228c1.5-4.9,3.5-9.2,6.9-12.7c-2.8-8.5-7.9-14.7-16.7-20.4c-5.3,6.6-8.6,12.7-8.9,21.4
				c9.1,3.1,15.2,7.9,17.9,12.3C290.7,228.4,291,228.2,291.3,228z M287.1,161.6c2.1-5.3,5-9.9,9.1-14.2c-4.9-6.2-10.3-11.4-16-15.2
				c-4.8,4.3-9.2,11.3-11.6,18.3c6.5,3.4,12.1,7.3,17.5,12C286.5,162.2,286.8,161.9,287.1,161.6z M291.3,34.5l0-0.5l-0.1-0.4
				l-0.1-0.4l-0.2-0.4l-0.2-0.4l-0.3-0.4l-0.3-0.3l-0.3-0.3l-0.4-0.3l-0.4-0.2l-0.4-0.2l-0.4-0.2l-0.4-0.1l-0.4-0.1l-0.4,0l-0.4,0
				l-0.4,0.1l-0.4,0.1l-0.4,0.2l-0.4,0.2l-0.4,0.3l-0.3,0.3l-0.3,0.3l-0.3,0.4l-0.2,0.4l-0.2,0.4l-0.1,0.4l-0.1,0.4l-0.1,0.4l0,0.5
				l0,0.4l0.1,0.4l0.1,0.4l0.2,0.4l0.2,0.4l0.3,0.4l0.3,0.3l0.3,0.3l0.4,0.3l0.4,0.2l0.4,0.2l0.4,0.1l0.4,0.1l0.5,0.1l0.4,0l0.4,0
				l0.4-0.1l0.4-0.1l0.4-0.2l0.4-0.2l0.4-0.3l0.4-0.3l0.3-0.3l0.3-0.3l0.2-0.4l0.2-0.4l0.1-0.4l0.1-0.4l0.1-0.4L291.3,34.5z
				 M279.7,315.6c9-3.8,14.4-10.9,14.8-19.4c-3.3-2.8-5.9-6.7-7.4-12.4c-0.4,0-0.9,0.1-1.3,0.1c-3.7,0-7.3-1.5-9.9-4.1
				c-0.1-0.2-0.3-0.3-0.4-0.5c-4.3,7.1-5.9,15.5-4.3,22.9c0.9,4.3,2.8,8,5.6,10.8c0,0,0,0,0,0C277.6,313.9,278.6,314.8,279.7,315.6z
				 M279.3,401.9c7.4-5.2,11.6-10.6,13.3-17.1c-6.6-3.1-11.6-8.9-13.6-14.3c-1,0.7-2,1.4-3.1,2.1c-0.3,0.2-0.6,0.3-1,0.3
				c-0.3,0-0.7-0.1-1-0.3c-0.1-0.1-0.2-0.1-0.3-0.2c-1.5,3.6-3.9,6.9-6.9,9.8c0,5.4,3.4,12.7,9.6,17.6c0,0,0,0,0,0c0,0,0,0,0,0
				C277.3,400.7,278.3,401.3,279.3,401.9z M288.4,347c-0.3,0.1-0.5,0.2-0.8,0.2c-0.3,0-0.6-0.1-0.9-0.2c-3.7-2.1-6.7-4.9-9-8.4
				c-4.1,4.6-9.3,8.2-15.2,10.6c0.6,7.9,5,14.8,12.5,19.7C283.6,363.4,287.8,356.5,288.4,347z M294,57.1c-4-4.7-10.1-9.8-16.4-13.5
				c-4.9,5.1-9.1,11.4-12.4,18.7c2.6,2,4.8,4.1,6.1,5.8c3,2.1,5.7,4.2,8.1,6.3C283.6,67.5,288.5,61.7,294,57.1z M292.1,446.4
				c-4-4.4-8.1-9.7-10.7-15.1c-5.9,4.9-11.2,8.8-16.1,12c2.3,6.4,6.3,12.4,12.5,18.7C283.4,456.8,288.3,451.5,292.1,446.4z M282,129
				c0.8-1.2,1.6-2.5,2.5-3.8c-5.1-7-11.6-13.4-17-18.5c-0.1-0.1-0.1-0.1-0.2-0.2c-6.1,6.2-10,12.3-12.8,19.9
				c6.8,3.4,12.9,7.3,16.8,10.5c2.3-3.4,4.9-6.3,7.5-8.5c0.6-0.5,1.5-0.6,2.2-0.1C281.3,128.6,281.7,128.8,282,129z M286.5,87.9
				c-3.2-5.3-8.7-10.8-16.3-16.2c-4,4.2-7.6,10-11.5,18.4c4.5,3.9,8,8.3,10.1,12.7c0.4,0.4,0.9,0.8,1.3,1.2c0.3,0.3,0.7,0.7,1,1
				C275.2,98.1,280.7,92,286.5,87.9z M287.4,230.7c-2.6-4.4-10-9.6-20.2-12.1c-5.2,8.3-6.1,19.1-2.3,27.7c1.2,0,2.3,0.1,3.5,0.3
				c3,0.5,5.7,1.6,8.2,3.2C277.4,243.2,281.2,235.8,287.4,230.7z M275.7,183.7c1.2-7.1,4.5-13.7,8.1-18.4c-6-5.2-12-9.2-19.3-12.8
				c-5,8.3-6.8,16.2-5.4,23.7C265.8,177.6,271.2,180,275.7,183.7z M281.4,473c-2-2.3-3.7-4.7-5.1-7.4c-2.6-2.6-4.9-5.2-6.9-7.8
				c-5.9,5.7-12.7,10.7-17.8,13.9c2.8,5.8,7.3,11.3,13.7,16.8C270.4,484.2,276.7,478.1,281.4,473z M275.8,259.9c1-1,2.3-1.9,3.6-2.6
				c-3.1-4-7-6.4-11.6-7.2c-6.5-1.1-14.1,1.3-22,6.8c4,9,14.6,17.2,26.2,15.8c-0.2-1-0.3-2-0.3-3
				C271.7,266.1,273.2,262.5,275.8,259.9z M278.8,192.4c-1-1.4-1.9-2.6-3.1-3.7c0,0,0,0,0,0c-4.3-4.4-9.7-7.2-17.1-8.9
				c-1.8,4.8-4.6,14.3-2.9,23.2c5.5,2.2,10,5.8,13.3,10.7C269.9,205.2,273.4,199,278.8,192.4z M281.5,426.4
				c-4.9-5.1-8.6-10.6-11.2-16.8c-3.4,3.1-7.3,5.8-12.1,8.8c-0.3,0.2-0.6,0.3-0.9,0.3c-0.4,0-0.8-0.1-1.1-0.4
				c-1.4-1.1-2.8-2.4-4-3.8c-0.6,0.5-1.1,0.9-1.7,1.4c2.6,7.2,5.7,13.6,9.2,19c0,0,0,0,0,0c1.2,1.9,2.5,3.6,3.8,5.3
				C269,436.5,274.9,432,281.5,426.4z M275.8,335.1c-2.2-4.8-3.1-10.5-2.7-16.8c-5.8,4-12.3,6-19.9,6c-0.3,0-0.7,0-1,0
				c-0.5,3-0.6,4.4-0.6,5.6c0,1.1,0,2,0.1,3.4c0.1,1.4,0.2,3.3,0.7,5.4c0.5,2.1,1.3,4.5,4.5,8.6C264.4,345.2,270.9,341,275.8,335.1z
				 M269.8,405c1-1.1,2-2.2,3-3.3c-5-4.5-8.5-10.6-9.4-16.4c-2.4,1.8-5.1,3.3-8,4.4c-0.2,0.1-0.4,0.1-0.7,0.1c-0.4,0-0.7-0.1-1-0.3
				c-0.4-0.3-0.8-0.6-1.2-0.9c-2,1.8-4,3.4-6.3,4.7c1.5,8.5,5.6,16.3,11.3,21.4C262.6,411.4,266.3,408.4,269.8,405
				C269.8,405,269.8,405,269.8,405z M272.9,276.4c-1.1,0.1-2.2,0.2-3.3,0.2c-7.3,0-14-3.1-19.2-7.6c-6.9,5.3-11.9,11.9-14,18.7
				c12.8,6.1,22.2,7.1,30.9,3.3C268,285.9,269.9,280.9,272.9,276.4z M262.1,60c3.4-7.2,7.6-13.5,12.5-18.7
				c-5-4.5-11.1-8.4-18.2-11.7c-4,4.3-8.7,12.1-12,19.8c2.4,1.3,4.4,2.5,6.1,3.6C254.2,54.9,258.4,57.4,262.1,60z M272.7,314
				c-2.5-3.1-4.3-6.8-5.2-11.1c-0.6-2.6-0.8-5.2-0.7-7.8c-3.5,1.3-7,1.8-10.4,1.8c-1.6,0-3.1-0.1-4.7-0.3c-3.5,11.7-3,19.6-2.2,23.9
				C258.9,321.2,266.1,319.2,272.7,314z M264.9,215.4c0.1-0.2,0.3-0.4,0.5-0.5c-5.4-7.4-13.9-11.1-25.4-11c-0.2,7.7,0.5,16.4,1.9,23
				c6-0.7,12-0.5,17.8,0.7C260.6,223.3,262.4,219.1,264.9,215.4z M255,385.8c7.1-3,13.1-9,15.7-15.4c-5.9-4.4-9.7-10.1-11.2-16.6
				c-3.7,5.7-8.9,10.1-14.8,12.7C246,373.4,248.5,380.9,255,385.8z M255.8,87.8c4-8.4,7.7-14.2,11.8-18.5
				c-3.2-3.5-10.3-8.6-17.4-12.3c-3.7,5.2-7,11.9-9.8,19.7c3.5,2.1,6.8,4.5,9.3,7C251.8,85,253.9,86.4,255.8,87.8z M267.2,454.8
				c-2.5-3.7-4.4-7.5-5.7-11.5c-1.3-1.6-2.5-3.2-3.8-5c-6.6,5.5-13,9.3-19,11.5c1.4,3.5,2.7,6.7,4.3,9.7c0,0,0,0,0,0
				c1.8,3.4,3.9,6.4,6.5,9.1C254.5,465.5,261.3,460.5,267.2,454.8z M265.1,103.6c-3-5.8-8.8-11.5-16.2-16.1c-4.2,5.1-8,12.8-10,20.6
				c5.7,2.9,10.9,6.4,15.2,10.2C256.8,113.1,260.3,108.4,265.1,103.6z M261.1,246.5c-1.9-4.7-2.5-10-1.9-15.2
				c-7.6-1.5-15.7-1.4-23.5,0.5c-0.2,6,3.5,15.7,8.3,22C249.8,249.7,255.6,247.3,261.1,246.5z M256.8,351c-0.1,0-0.2,0.1-0.3,0.1
				c-0.1,0-0.3,0.1-0.4,0.1c-0.5,0-1-0.2-1.4-0.7c-3.3-3.9-5.4-8.5-6.3-13.8c-4.7,3.6-11.2,5.6-17.6,6.5c-0.9,6.5,0.7,16.4,4.8,22.1
				C244.3,364,251.9,358.8,256.8,351z M255.5,177.6c0-0.1,0-0.1,0.1-0.2c-1.3-6.1-0.7-12.3,1.8-18.8c-5.4-2.9-13.1-6.3-21.6-7.5
				c-1.7,6.7-2.4,13.7-2.2,21.2C242.3,172.8,249.7,174.6,255.5,177.6z M251.2,124.9c0.4-1,0.8-2.1,1.2-3.1
				c-5.8-5.4-13.8-10.3-22.4-13.6c-4.6,6.4-6.8,14.7-7.4,21.1c6.3,1.8,12.6,4.3,17.9,7.2c1.5-3.9,3.3-7.8,5.6-12
				c0.5-0.8,1.5-1.2,2.3-0.8C249.4,124,250.3,124.5,251.2,124.9z M251.8,201.7c-1-7.7,0.8-15.4,2.4-20.5c-5.6-3.1-13.2-4.9-22.1-5.2
				c-1.4,8.2-0.5,17.7,2.4,25.2c0.7,0.1,1.4,0.2,2,0.3c0.3-0.7,0.9-1.1,1.6-1.2C243.2,200.1,247.7,200.6,251.8,201.7z M248.4,324.1
				c-0.2,0-0.4,0-0.5,0c-0.8-0.1-1.4-0.6-1.6-1.4c-0.4-1.8-0.7-3.7-0.9-5.7c-2.4,0.4-5.1,0.6-8,0.6c-3.9,0-8.2-0.4-12.5-1.1
				c-1.6,5.2-2,14.7,0,23.6c9.9-0.3,18.7-3.3,23-7.8C247.8,329.6,248,326.9,248.4,324.1z M255.7,435.3c-3.1-5-5.9-10.8-8.3-17.3
				c-5,3.4-10.7,6.1-16.9,8c-0.1,4.9,0.7,9.3,2.3,13.4c0,0,0,0.1,0.1,0.1c1,2.5,2.4,4.8,4,7.1C242.9,444.6,249.2,440.8,255.7,435.3z
				 M251.8,479.4c-1.7-2.4-3-4.8-4.1-7.3c-2.8-2.7-5-5.7-6.9-9c-6.9,5.1-13.2,8.9-19.2,11.5c3.6,8.4,8.2,14,11.8,17.4
				C239.8,489.4,246.4,484.9,251.8,479.4z M245.3,313.2c0.1-5.3,1-11.2,2.8-17.3c-4.8-1.1-9.5-3-13.8-5.1
				c-6.6,4.7-10.1,11.3-11.6,21.6C232.4,314.2,240.4,314.1,245.3,313.2z M249.9,411.6c-3.4-4.7-5.9-10.4-7.1-16.5
				c-3.6,1.8-7.7,3.3-12.2,4.3c-0.1,0-0.3,0.1-0.4,0.1c-0.6,0-1.2-0.3-1.5-0.8c-0.6-0.9-1.2-1.9-1.8-2.8c-1.2,0.5-2.6,1-4,1.5
				c0.7,5.7,2.5,13.4,4.7,19.6v0c0.7,2,1.5,3.9,2.2,5.5C237.4,420,244.3,416.3,249.9,411.6z M249.7,386c-5.1-5.3-7.3-12.1-8.6-18.1
				c-2,0.6-4,1.1-6.2,1.4c-0.1,0-0.2,0-0.2,0c-0.5,0-1.1-0.3-1.4-0.7c-0.1-0.1-0.2-0.2-0.2-0.3c-3.2,2-6.8,3.6-10.7,4.7
				c1.2,8.1,4,15.5,8.6,22.5C238.6,393.5,244.6,390.5,249.7,386z M247.7,266.4c-2.5-2.8-4.5-5.9-5.7-9.1c-1.1-1.3-2.2-2.8-3.2-4.5
				c-6.3,2.2-15.6,5.4-21.9,15.9c3.8,4.1,9.8,9,18.6,11.6C238.3,275.3,242.4,270.5,247.7,266.4z M237.1,74.8
				c2.8-7.8,6.1-14.4,9.9-19.7c-4.3-2.7-10.3-5.7-18-8.9c-3.8,5-7.4,13.3-9.6,20.1c3.1,1.2,5.9,2.5,8.2,3.8
				C230.5,71.4,233.8,73,237.1,74.8z M235.5,106.5c2.2-7.9,6.1-15.9,10.5-21.2c-3.9-3.6-10.4-7.5-18.5-11.2
				c-3.7,6.2-6.3,13-8.1,21.1c5.2,2.6,9.8,5.9,11.4,9.3C232.4,105.2,234,105.8,235.5,106.5z M237.4,147.7c0.4-2.5,1.1-5.1,1.9-7.7
				c-5.5-3-12.4-5.7-19.1-7.5c0,0,0,0,0,0c-1.6-0.4-3.1-0.8-4.6-1.1c-2.1,5.5-3.3,12.1-3.6,21c7.3,0.9,13.8,2.1,19,3.6
				c0.4-2.5,1-4.9,1.6-7.3c0.2-0.9,1.1-1.4,2-1.3C235.5,147.4,236.5,147.5,237.4,147.7z M238.2,227.6c-1.3-6.5-2.1-14.8-1.9-22.3
				c-5.7-1.1-14-1.3-22.2,1.1c0.1,7.9,4.2,18,8.2,22.7c3.5-0.5,7.4-0.7,11.5-0.5C235.2,228.1,236.7,227.8,238.2,227.6z M239,459.8
				c-1.6-3.1-3-6.5-4.3-10.2c-1.7-2.1-3.1-4.4-4.2-6.7c-5.2,3.5-11.6,6.4-19.9,9.8c1.8,6.2,5.1,12.8,9.3,18.6
				C225.7,468.8,232,465,239,459.8z M232.5,287.5c0.4-1.3,0.8-2.5,1.3-3.8c-9.2-2.8-15.6-8-19.6-12.4c-6,4.1-11.1,11.2-14.1,20
				c6.8,3.4,15.4,5.6,23.4,6C225.7,293.4,228.7,290.2,232.5,287.5z M236.9,249.6c-3-5.6-5.1-12.2-5-17.4c-9.7-0.3-17.5,1.8-23.2,6.2
				c0.1,0.4,0.3,0.8,0.5,1.2c0.2,0.2,0.4,0.4,0.4,0.7c0.1,0.2,0.1,0.3,0.1,0.5c2.8,6.4,7.3,12.7,12.1,16.6
				C227,253.1,232.5,251.1,236.9,249.6z M229.9,172.4c-0.1-4.4,0.1-8.7,0.6-12.8c-6.1-1.8-14.2-3.3-23.3-4.1
				c-0.9,7.2-0.9,14.2,0.1,21.8c7.1-0.8,15.2-0.4,20.7,1.1c0.2-1.6,0.4-3.2,0.7-4.7C228.9,173.1,229.3,172.6,229.9,172.4z
				 M211.7,203.2c6.4-2.1,13.1-2.6,18.7-2.3c-2-5.8-2.9-12.3-2.7-18.7c-5.4-1.7-14.4-2.1-21.9-1c-0.6,8.4,1.1,15.8,5.1,22.5
				C211.2,203.4,211.4,203.3,211.7,203.2z M231.1,365.1c-3.4-6.3-4.7-15-4-21.5c-1.1,0.1-2.1,0.1-3.2,0.1c-4.3,2.3-9.9,3.7-15.4,4.4
				c-0.4,6.7-0.4,14.9,2.2,23.1c3.1-0.2,6.2-0.7,9.1-1.5c0.1,0,0.1,0,0.1,0C224,368.7,227.8,367.1,231.1,365.1z M229,439.5
				c-1.6-4.4-2.3-9.2-2.1-14.4c-0.7-1.4-1.4-3-2.1-4.8c-7.4,4.3-15,6.8-21.1,8.4c0.4,5.8,2,12,5.6,20.6
				C217.7,445.9,224.1,442.9,229,439.5z M227.3,105.8c-1.4-2.4-5.6-5.4-10.7-7.8c0,0-0.1,0-0.1,0c-2.7-1.3-5.7-2.4-8.6-3.2
				c-2.7,4.7-4.4,11.4-5.3,20.9c7.6,2.9,13.2,7.3,16.2,12.6c0.1,0,0.2,0.1,0.3,0.1C219.8,121.4,222.3,112.6,227.3,105.8z M225,392.5
				c-3.1-5.9-5.2-12.1-6.2-18.7c-3,0.7-6.2,1.2-9.4,1.2c0,0-0.1,0-0.1,0c-0.8,0-1.5-0.5-1.7-1.2c-0.2-0.4-0.3-0.9-0.4-1.3
				c-2,0.4-4.1,0.7-6.3,1c0,7.5,0.6,15.2,1.3,24c0,0.4,0.1,0.7,0.1,1.1C210.5,397.2,219.1,394.9,225,392.5z M221.2,316
				c0-0.1,0-0.1,0.1-0.2c-0.3-0.1-0.6-0.1-0.9-0.2c-0.9-0.2-1.5-1.1-1.4-2c0.5-4.8,1.5-9,3-12.6c-6.9-0.6-14.1-2.3-20.3-4.9
				c-3.1,6.1-5.1,14.6-5.1,22.5C205.3,320.5,215.8,319.5,221.2,316z M223.6,416.7c-2-6-3.6-12.9-4.3-18.3
				c-5.6,1.7-12.2,3.2-18.5,4.1c-0.1,0-0.2,0-0.3,0c-0.4,0-0.8-0.1-1.1-0.4c-0.1-0.1-0.2-0.1-0.3-0.2c0.1,8.7,1.5,17.1,3.8,23.2
				C209.2,423.4,216.5,421,223.6,416.7z M216,93.7c1.9-8,4.5-14.9,8.2-21.2c-5.3-2.6-12.7-5.3-20.3-7.3c-2,5-3.7,11.5-5.5,21.8
				c3.9,1.2,7,2.5,9.4,3.9C210.3,91.6,213.1,92.5,216,93.7z M221.3,340.9c-1.7-7.2-1.8-14.6-1.1-20.3c-4,1.7-9.2,2.6-14.6,2.6
				c-1.9,0-3.8-0.1-5.6-0.3c-1.4,5.8-2,14.5-0.2,22.1C206.3,345.1,215.3,343.8,221.3,340.9z M218.2,229.8
				c-3.3-4.6-6.3-11.8-7.4-18.6c-5.9,1.3-13.8,3.7-21.9,7.6c4.1,9.8,8.8,16.5,14.9,21.6c0.5-0.2,1.1-0.4,1.6-0.6
				c-0.2-0.5-0.3-0.9-0.5-1.4c-0.2-0.7,0-1.5,0.5-2C208.9,233.3,213.2,231.1,218.2,229.8z M213.2,267.7c1.8-3.1,3.8-5.7,5.9-7.8
				c-4.8-4.2-9.3-10.3-12.3-16.7c-0.8,0.3-1.7,0.6-2.5,1c0,0,0,0-0.1,0c-6.3,2.9-12.1,7.6-15.8,13.1c3.3,5.2,11.5,12.4,19.9,14
				C209.9,269.9,211.5,268.7,213.2,267.7z M212.8,128.5c0.2-0.5,0.6-0.8,1-1c-3.9-4.8-10.9-8.6-19.8-10.5c-3,5.1-4.5,14.2-3.7,22.7
				c6.6,0.8,13.1,1.9,18.7,3C209.8,137.1,211,132.6,212.8,128.5z M208.3,151.9c0.1-2,0.2-3.8,0.4-5.6c-7.6-1.5-17.1-3-26-3.9
				c-0.7,8.8-0.4,17.2,0.1,22.7c6.7-0.5,13.9-0.6,20-0.3c0-3.9,0.3-7.7,0.9-11.6c0.1-1,1-1.6,2-1.6
				C206.6,151.8,207.5,151.8,208.3,151.9z M208.9,459.3c-1-2.4-1.8-4.7-2.4-7c-1.4-3.3-2.8-6.7-3.9-10.1c-6,3.1-15.1,6.2-21.2,7.1
				c1.4,6.2,4,12.5,8.3,19.8C196.3,467.1,202.6,463.9,208.9,459.3z M209.2,207.8c-3.7-5.3-5.9-11.1-6.8-17.4
				c-5.7,0.5-13.5,1.8-22.3,3.7c1.6,7.6,3.8,14.2,7.2,21.3C195.4,211.6,203.3,209.2,209.2,207.8z M206.2,369
				c-1.7-7.3-1.8-14.4-1.4-20.4c-1.5,0.1-2.9,0.2-4.2,0.2c-0.8,0-1.6,0-2.3-0.1c-0.8,0-1.5-0.6-1.7-1.4c-0.2-0.7-0.4-1.5-0.5-2.2
				c-3,0.4-6,0.6-9.1,0.6c-0.3,0-0.7,0-1,0c-1.5,7.4-2,16.3-1.3,25C192.1,370.8,199.8,370.2,206.2,369z M203.6,177.9
				c-0.4-3.2-0.7-6.3-0.8-9.3c-7.4-0.4-16.7-0.1-24.6,0.7c0.6,6.6,2,13.4,4.4,20.6c5.7-1.2,13.2-2.5,19.4-3.1
				c-0.1-2.4,0-4.8,0.2-7.3C202.4,178.7,202.9,178.1,203.6,177.9z M199,114.5c1-9.3,2.8-16.1,5.5-21.1c-4.4-2.3-11.6-4.3-21.1-6
				c-1.6,5.3-2.5,12.4-2.6,21.1c4.8,1.1,9.3,2.7,13.1,4.6C195.6,113.5,197.3,114,199,114.5z M196.5,290.4c2.1-6.2,5.2-11.6,8.9-16
				c-6-1.8-11.7-5.8-15.7-9.9c-6.4,3.8-11.6,11.1-13.8,16.9C181.7,287.1,188.4,290.1,196.5,290.4z M201.6,438.6
				c-0.9-3.6-1.6-7.2-1.7-10.9c-0.9-2.1-1.7-4.6-2.3-7.2c-6.5,1.9-15.1,3.8-21.4,4.3c-0.5,6.2,0.9,13.1,4.2,20.9
				C185.9,445,195.6,441.9,201.6,438.6z M198.2,294.5c-0.3-0.1-0.5-0.3-0.8-0.4c-6.2-0.1-11.6-1.5-16.6-4.3
				c-4.1,4.9-8.1,10.9-10.1,20.7c6.6,3.8,13.1,5.1,22.2,4.6C193.3,307.8,195.3,300.2,198.2,294.5z M194.8,86.1
				c1.8-10.2,3.5-16.8,5.6-22c-5.2-1.8-12.6-3.6-20.6-4.8c-2,6.8-3.3,15.6-4.1,22.4c2.6,0.5,4.9,1.1,6.9,1.8
				C187.2,84.3,191.2,85.1,194.8,86.1z M198.1,393.8c-0.6-7.1-1-13.5-1-19.9c-3.7,0.3-7.6,0.5-11.5,0.5c-0.9,0-1.8,0-2.8,0
				c-0.9,0-1.7-0.7-1.8-1.7c-0.1-1.3-0.2-2.7-0.3-4c-1.2,0.1-2.5,0.1-3.8,0.1c-1.3,9.8-1,20.6-0.6,27.2
				C185.1,396,191.9,395,198.1,393.8z M196.9,416.8c-1.1-5.8-1.6-12.3-1.5-18.8c-5.6,0.9-11.8,1.7-19.4,1.7
				c-1.7,6.1-1.4,15.1,0,21.4C182,420.6,190.6,418.7,196.9,416.8z M196.4,322.3c-0.8-0.2-1.6-0.3-2.3-0.5c-0.8-0.2-1.4-0.9-1.4-1.8
				c0-0.4,0-0.8,0-1.2c-1.1,0-2.3,0.1-3.3,0.1c-3.8,0-7.3-0.4-10.5-1.2c-2.7,6-4.7,15.1-5.3,23.1c8.3,1.4,15,1.6,21.8,0.6
				C194.5,334.6,195.1,327.4,196.4,322.3z M200.2,242.2c-4.3-3.8-7.9-8.5-11.1-14.4c-7,2.4-13.8,6.2-19.6,11c1.7,2.6,3.4,5,5.2,7.1
				c0,0,0,0,0.1,0.1c3.4,4,7.1,7.1,10.9,9C189.2,249.8,194.4,245.3,200.2,242.2z M185,139c0.5,0.1,1.1,0.1,1.6,0.2
				c-0.7-8.8,0.8-17.8,3.9-23.5c-6.2-2.9-14.2-4.8-22.3-5.1c-1.4,6-1.6,13.8-0.3,22.4C174.3,133.7,180.7,135.5,185,139z
				 M187.4,224.5c-0.9-1.8-1.7-3.7-2.5-5.8c-1.9-3.8-3.4-7.4-4.7-11c-8.1,2.4-15.8,5.5-22,8.2c2.4,6.1,5.8,12.1,10.6,18.8
				C174.4,230.3,180.9,226.7,187.4,224.5z M187.2,261.8c-0.9-1.1-1.6-2.1-2.1-3.1c-4.2-1.9-8.3-5.1-12-9.3c-6.3,4-12.6,10.1-17,16.5
				c2.4,2.6,4.8,4.7,7.3,6.6c0.2,0.1,0.4,0.2,0.6,0.4c0,0,0.1,0.1,0.1,0.1c2.9,2.2,5.8,4.1,8.9,6.1
				C175.4,273.2,180.5,266,187.2,261.8z M180.6,365c-0.2-6.9,0.4-13.5,1.5-19.5c-3.4-0.2-6.9-0.6-10.9-1.4c-0.9-0.2-1.5-1-1.5-1.9
				c0.1-1.2,0.1-2.5,0.3-3.8c-1.5-0.2-3.3-0.5-5.3-0.9c-2.8,8.4-4.5,16.4-6.1,24.1c-0.2,0.9-0.4,1.9-0.6,2.8
				C167.3,365.2,174.7,365.4,180.6,365z M179.2,140.3c0-0.2,0.1-0.3,0.1-0.5c-1.7-0.8-3.7-1.6-5.9-2.1c-2.2-0.6-4.6-1-7.1-1.2
				c-0.1,0-0.2,0-0.3,0c-2.4-0.2-4.9-0.3-7.5-0.2c-1.2,6.8-0.7,14.2,1.4,22.2c6.8-0.3,13.1-0.3,18.9,0.1
				C178.5,153.2,178.4,146.8,179.2,140.3z M179.2,165.5c-0.1-1-0.2-2.1-0.3-3.2c-8-0.5-17.2-0.4-27,0.4c0.6,4.6,1.7,11.8,5.1,22.1
				c6.5-1.3,13.2-2.3,19.6-2.6c-1.2-4.9-1.9-9.7-2.2-14.5c-0.1-1,0.7-1.8,1.6-1.9C177.1,165.7,178.1,165.5,179.2,165.5z
				 M177.6,190.9c0.4-0.1,0.9-0.2,1.4-0.3c-0.5-1.6-1-3.2-1.5-4.8c-8.2,0.3-16.9,1.9-25.3,3.7c1.5,7.5,4,14.3,7.2,21.8
				c5.7-2.4,12.5-5,19.5-7.1c-1.1-3.6-2-7.2-2.8-11.2C176.1,192.1,176.7,191.1,177.6,190.9z M177.1,107.8c0.2-8.9,1.1-15.9,2.7-21.4
				c-5-1.5-12.1-2.4-21.1-2.6c-0.4,4.6-0.8,11.8-0.7,22.1c3.3,0.1,6.3,0.4,9,0.9C170.4,106.9,173.8,107.3,177.1,107.8z M179.6,455.8
				c-0.9-2.6-1.5-5.1-2-7.6c-1.7-3.8-2.9-7.4-3.8-10.9c-8.9,2.2-16.4,3.4-22.3,4.1c1.2,7.4,3.3,14.2,6.4,20.5
				C164.1,460.6,172.8,458.4,179.6,455.8z M177.7,287.8c-1.8-1.3-3.4-2.7-5.1-4.4c-0.4-0.3-0.8-0.5-1.3-0.8c-3-1.9-5.8-3.8-8.7-5.9
				c-6,6-11.1,13.9-14,19.7c6.4,3.7,12.6,6.3,19.6,8.4C170.7,297.3,174.1,292.2,177.7,287.8z M170.5,334.9
				c0.9-6.6,2.6-13.2,4.8-18.2c-2.6-0.9-5.1-2.1-7.6-3.6c-0.6-0.4-1-1.2-0.8-1.9c0.2-0.9,0.4-1.9,0.6-2.7c-2.3-0.7-4.5-1.4-6.7-2.2
				c-4.8,6-9,14.2-11.7,22.7C155.1,331.7,162.8,333.8,170.5,334.9z M173,433.7c-0.6-3.7-0.7-7.2-0.3-10.6c-0.7-2.6-1.2-5.8-1.4-9.1
				c-8.4,1.7-16.7,2.8-22.9,3c-0.2,2.1-0.1,4.4,0.1,7.2c0.4,3.7,1.1,8.2,2.4,13.6C156.7,437.1,164.2,436,173,433.7z M172.7,397.7
				c-0.1-1.8-0.2-3.8-0.3-6c-4.4,0.4-8.9,0.6-13.2,0.6c-3.4,0-6.7-0.1-9.9-0.4c-1.4,6.4-1.8,13.3-1.1,21.5
				c6.1-0.3,14.4-1.4,22.8-3.1C171,405.8,171.5,401.3,172.7,397.7z M172.3,388c-0.1-6,0.1-12.8,0.9-19.1c-5,0-10.9-0.3-17.6-0.8
				c-0.5,0-1-0.3-1.3-0.7c-0.1-0.1-0.2-0.3-0.3-0.5c-2.8,6.7-4.2,15.3-4.2,21.5C156.8,388.8,164.5,388.7,172.3,388z M170.6,246.6
				c-1.7-2.2-3.4-4.6-5-7.3c-0.4-0.8-0.3-1.7,0.4-2.3c0,0,0,0,0,0c-1.5-2.1-2.9-4.1-4.2-6.1c-8.8,3.6-16.5,8.1-22.6,11.9
				c3.9,4.9,7.3,9,10.8,12.7c0.2,0.1,0.3,0.3,0.4,0.4c1.6,1.7,3.3,3.3,5.1,4.8C159.7,255.2,165.1,250.2,170.6,246.6z M164.1,132.6
				c-1.1-8.4-1-16.3,0.4-22.4c-5.9-0.8-12.9-0.9-21.5-0.3c0.2,5.5,1,13.4,2.1,22.2c4-0.1,7.9,0.1,11.7,0.6
				C159.2,132.5,161.6,132.5,164.1,132.6z M156.1,356c1.3-6.1,2.9-12.5,5-19.1c-4.7-1.1-10-2.8-15.1-5.3c-0.8-0.4-1.2-1.3-1-2.2
				c0.3-1.1,0.7-2.3,1.1-3.4c-0.5-0.2-1.1-0.3-1.6-0.5c-4.3,7.3-8.2,18.1-10.6,26C141.1,353.5,148.3,354.7,156.1,356z M155.1,213.2
				c0.3-0.2,0.7-0.3,1-0.4c-0.4-1-0.8-1.9-1.2-2.9c-7.1,0.9-17.2,4.8-24.6,8.8c2.1,4.4,6.2,12.4,11.1,18.5
				c5.3-3.2,11.6-6.5,18.5-9.4c-2.4-4.1-4.3-8.1-5.8-12.2C153.8,214.5,154.2,213.6,155.1,213.2z M154.3,105.8
				c-0.1-10.2,0.3-17.5,0.7-22.1c-6.2-0.4-13.9-0.4-20.6,0c-0.8,7.9-0.8,15.2,0,22.9c2.3-0.2,4.6-0.3,6.8-0.2
				C145.9,106,150.3,105.8,154.3,105.8z M156.1,158.7c-2-8-2.5-15.6-1.4-22.5c-6.9-0.7-14.1-0.4-22.3,0.9c0.3,7.2,1.8,14.3,4.4,21.6
				c5.1-0.5,10-0.4,13.2,0.4C152,158.9,154.1,158.8,156.1,158.7z M147.8,290.4c3-5.2,7.3-11.1,12-15.9c-2.5-2.1-5-4.3-7.4-7.1
				c-0.5-0.6-0.6-1.5-0.2-2.2c0.3-0.5,0.7-1.1,1-1.6c-1.6-1.4-3.2-2.8-4.7-4.4c-7.4,4.6-14.3,11.7-19.1,17.2
				C135.1,282.3,140.7,286.2,147.8,290.4z M153.2,185.5c0.1,0,0.2,0,0.2-0.1c-3.6-11-4.6-18.4-5.3-23c-4.8-0.9-14.4-0.3-21.5,2
				c0.9,7.3,3.1,14.9,6.2,21.3C139.4,184.5,146.3,184.4,153.2,185.5z M147.4,322.6c2.6-6.6,6-12.8,9.8-17.8c-4-1.7-7.8-3.7-11.8-6
				c-0.8-0.5-1.1-1.5-0.7-2.3c0.4-0.9,0.8-1.8,1.4-2.8c-1.1-0.7-2.3-1.4-3.3-2c-4.5,4.9-9.9,12.8-14.9,21.7
				C133.2,317,139.9,320.2,147.4,322.6z M147.2,377.4c1.2-6.5,3.4-13.3,6.8-18c-7.5-1.3-14.5-2.6-21.5-4.4
				c-3.1,4.9-5.2,11.6-6.5,20.7C131.5,376.7,140.7,377.3,147.2,377.4z M153.5,206.3c-2.2-5.8-4-11.4-5.1-17.6
				c-7.7-0.7-15.2,0.2-22,2.7c1.3,6.1,4.1,12.8,8.5,20.9C141.1,209.5,147.9,207.2,153.5,206.3z M146.1,389.8
				c-0.1-2.5,0.1-5.5,0.5-8.7c-6.7-0.1-15.7-0.8-21.5-1.8c-1.3,4.8-2,11.6-2.6,20.6c7.1,0.4,15.5,0.3,21.9,0.1
				C144.8,396.5,145.3,393.1,146.1,389.8z M144.7,422.9c-0.2-2.9-0.1-5.4,0.2-7.6c-0.4-4.1-0.6-7.9-0.5-11.5c-3,0.1-6.4,0.1-9.9,0.1
				c-4.1,0-8.4-0.1-12.3-0.3c-0.8,6-0.5,13,0.9,21.1C130.2,424.8,137.6,423.9,144.7,422.9z M141.5,132.3c-1.5-11.3-2-18.3-2.1-22.3
				c-6.4,0.1-13.2,1-20.2,2.8c0.4,6,1.6,13.2,3.4,21.6c2.9-0.5,5.4-0.7,7.7-0.7C134.3,133,138,132.5,141.5,132.3z M131.4,268.9
				c4.2-4.3,9.2-8.9,14.5-12.3c-3.5-3.8-7-8.1-10.9-13.1c-0.2-0.2-0.3-0.5-0.3-0.7c-6.8,1.4-14.1,5.7-19.3,10.2
				C118.5,258.2,123.7,263.3,131.4,268.9z M133.5,341.1c2.1-5.9,4.7-12,7.5-16.9c-6.3-2.5-12-5.5-16.7-8.9c0,0-2.3,2-4.7,5
				c-2.4,3-4.8,7.1-7.7,14.3C118.2,337.3,125.3,339.5,133.5,341.1z M128.6,304.7c3.8-6.1,7.6-11.3,11-15.1c-4.8-3.2-9-6.6-13.4-11.3
				c-4.9,0.4-12.5,7.2-16.3,14.3C113.7,296.8,120.1,301,128.6,304.7z M137.8,238.5c-5-6.4-9.1-14.5-11.1-18.8
				c-6.8,0.8-15.2,4.5-20.6,8c3.3,5.7,7.6,11.5,12.9,17.8C124.7,241.9,131.4,238.9,137.8,238.5z M133.1,159.2
				c-2.6-7.3-4-14.4-4.3-21.7c-5.3,0.3-12.1,1.7-20.8,4.5c1,5.7,3.2,12.8,6.5,20.9c3.2-0.7,6.4-1.2,9.9-1.5
				C126.9,160.4,129.9,159.7,133.1,159.2z M130,352.1c0.6-2.3,1.4-4.8,2.3-7.5c-8.3-1.7-15.5-3.9-21.9-6.6
				c-2.5,4.6-4.8,10.6-7.3,19.1c5.5,1.8,12.9,3.5,22.1,5.2C126.4,358.3,128,354.9,130,352.1z M127.3,216c1.3-0.7,2.8-1.5,4.3-2.2
				c-4.5-8.3-7.3-15.2-8.7-21.5c-7.3,1.6-15.3,4.3-20.8,7.3c1.7,5.4,5.5,12.2,11.3,20.3C118,217.9,123,216.4,127.3,216z
				 M126.1,274.7c0.9-1,1.8-2,2.8-3.1c-7.8-5.7-13.2-11.1-16.6-16.7c-5.7,2.8-11.3,7.8-16.7,14.9c4.3,4,11,9.5,16.7,13.3
				C116.5,278.5,121.7,275,126.1,274.7z M125.3,310.2c0.5-0.8,0.9-1.6,1.4-2.3c-8.6-3.9-15.2-8.1-19.3-12.6
				c-4.2,3.1-8.7,9.2-13.2,18.3c6.2,3.4,13.5,6.7,19.6,9C117,317.3,121.1,312.3,125.3,310.2z M129.2,186.6
				c-3.1-6.5-5.3-14.1-6.2-21.4c-7.4,0.8-14.1,2.7-20.3,5.8c1,3.5,3.3,10,8.7,20.7c4.1-1.4,8.4-2.5,12.4-3.3
				C125.6,187.7,127.4,187.1,129.2,186.6z M122.1,376.8c0.5-4.1,1.2-7.7,2-10.9c-9.3-1.7-16.6-3.5-22.3-5.3
				c-2.1,5.4-3.8,12.7-4.9,21.3c6.2,1.3,16.3,2.4,23.4,2.7C120.8,381.6,121.3,379,122.1,376.8z M118.8,401.5c0.3-5,0.6-9.4,1.1-13.2
				c-7.2-0.4-17.3-1.4-23.6-2.7c-1,5-1.6,12.7-0.2,20.7c6,1.7,15.2,1.9,22,1.3C118.2,405.4,118.4,403.4,118.8,401.5z M112,250.9
				c1.2-1.1,2.6-2.2,4-3.3c-5.4-6.3-9.7-12.3-13.1-18.1c-5.6,2.3-11.6,6.6-17.5,12.6c4.3,5.7,9.9,11.3,16,15.9
				C104.9,254.9,108.4,252.5,112,250.9z M107.9,334.9c0.9-2.6,2.3-5.8,4.1-9c-6.3-2.4-13.6-5.8-19.8-9.2c-3.5,3.9-6.6,10.1-9.3,18.6
				c5.5,2.6,14.2,5.6,21.3,7.3C105.3,339.6,106.6,337.1,107.9,334.9z M110.8,163.8c-3.3-8.2-5.4-15.1-6.5-21
				c-6.6,1.3-13.6,4.2-19.9,7.1c2.5,7.4,5.2,14.1,8.3,20.8c2.9-1.1,5.4-2,7.3-2.4C103.4,166.4,107.1,165,110.8,163.8z M106.2,291.6
				c1-1.9,2.2-3.9,3.7-5.8c-5.9-4-12.8-9.6-17.1-13.6c-5,2.9-9.9,8.6-14,16.5c5.6,4.5,13,8.8,19.1,11.1
				C100.7,296,103.5,293.3,106.2,291.6z M110,221.4c-5.7-8-9.4-14.6-11.2-20.2c-5.9,2.9-13.3,7.3-18.1,11.1
				c3.6,5.9,7.9,12,12.8,18.1c3.2-2.1,6.3-3.8,9.4-4.8C104.8,224.2,107.3,222.7,110,221.4z M107.9,193c-4.1-8.3-7.1-15.5-8.6-20.7
				c-5.1,1.5-13.6,5.2-19.4,9.1c2.8,6.1,7,14.2,11,19.8c2.9-1.6,5.7-3.1,8.2-4.2C101.6,195.6,104.6,194.2,107.9,193z M99,357.7
				c1.3-4.5,2.5-8.3,3.7-11.6c-7.2-1.8-15.8-4.8-21.4-7.4c-2.6,4.9-4.8,11.8-6.4,20.2c4.7,1.8,11.9,4.2,21.6,6
				C97.3,362.2,98.1,359.8,99,357.7z M91.9,268.5c2.2-3,4.5-5.7,6.8-8c-6.2-4.7-11.8-10.4-16.2-16.2c-4.9,3.2-9.9,8.4-15,15.5
				c3.3,3.2,8.6,8,16.9,14.4C86.8,271.8,89.3,269.8,91.9,268.5z M90.2,313.3c1.9-4,3.8-7.4,5.7-10.4c-6.3-2.5-13.6-6.8-19.2-11.3
				c-2.6,2.9-6.1,8.7-10.6,17.6c5.4,3.3,12.3,6.6,20,9.5C87.3,316.6,88.7,314.8,90.2,313.3z M81.9,240.4c2.9-3,5.8-5.7,8.6-7.9
				c-4.9-6.1-9.2-12.2-12.8-18.2c-5.7,3.5-11.2,8.1-17.2,14.2c0.5,0.6,1.1,1.2,1.6,1.9c3.8,4.4,8.4,9.8,13.4,14.7
				C77.6,243.2,79.7,241.6,81.9,240.4z M75,288c2.1-4.3,4.4-8,6.9-11.1c-8.2-6.3-13.5-11.1-16.8-14.3c-4.7,4.8-8.6,10.4-11.8,17.3
				c4.8,3.6,10.7,7.5,18.4,12.1C72.9,290.3,74,289,75,288z M73.2,329.4v-0.5l-0.1-0.4l-0.1-0.4l-0.1-0.4l-0.2-0.4l-0.2-0.4l-0.3-0.4
				l-0.3-0.3l-0.3-0.3l-0.4-0.3l-0.4-0.2l-0.4-0.2l-0.4-0.1l-0.4-0.1l-0.5,0l-0.4,0l-0.4,0.1l-0.4,0.1l-0.4,0.2l-0.4,0.2l-0.4,0.2
				l-0.4,0.3l-0.3,0.3l-0.3,0.3l-0.3,0.4l-0.2,0.4l-0.2,0.4l-0.1,0.4l-0.1,0.4l0,0.4l0,0.5l0.1,0.4l0.1,0.4l0.1,0.4l0.2,0.4l0.2,0.4
				l0.3,0.4l0.3,0.3l0.3,0.3l0.4,0.3l0.4,0.2l0.4,0.2l0.4,0.1l0.4,0.1l0.4,0l0.4,0l0.4,0l0.4-0.1l0.4-0.1L71,333l0.4-0.2l0.4-0.3
				l0.3-0.3l0.3-0.3l0.3-0.4l0.2-0.4l0.2-0.4l0.1-0.4l0.1-0.4L73.2,329.4z"/>
		</g>
	</g>
</g>
</svg>
